<svg width="130" height="81" viewBox="0 0 130 81" fill="none" xmlns="http://www.w3.org/2000/svg">
<path d="M54.56 70.1082C51.52 73.6282 48.08 76.3082 44.24 78.1482C40.4 79.9882 36.44 80.9082 32.36 80.9082C28.28 80.9082 24.32 79.9482 20.48 78.0282C16.64 76.1082 13.24 73.3882 10.28 69.8682C7.24 66.3482 4.84 62.1482 3.08 57.2682C1.32 52.3082 0.44 46.7882 0.44 40.7082C0.44 34.6282 1.28 29.1482 2.96 24.2682C4.72 19.3082 7.08 15.1082 10.04 11.6682C12.92 8.22824 16.32 5.58824 20.24 3.74824C24.16 1.90824 28.36 0.988236 32.84 0.988236C37.32 0.988236 41.52 1.94824 45.44 3.86824C49.36 5.78824 52.76 8.46824 55.64 11.9082C58.52 15.4282 60.76 19.6682 62.36 24.6282C63.96 29.5882 64.76 35.1082 64.76 41.1882C64.76 47.2682 63.8 52.7482 61.88 57.6282C60.04 62.5082 57.6 66.6682 54.56 70.1082ZM16.88 62.3082C18.88 65.0282 21.2 67.1882 23.84 68.7882C26.48 70.3882 29.32 71.1882 32.36 71.1882C35.32 71.1882 38.16 70.4282 40.88 68.9082C43.6 67.3882 46 65.2682 48.08 62.5482C50.08 59.8282 51.68 56.6282 52.88 52.9482C54.08 49.2682 54.68 45.3082 54.68 41.0682C54.68 38.1882 54.32 34.9882 53.6 31.4682C52.88 27.9482 51.68 24.6282 50 21.5082C48.24 18.4682 45.96 15.9082 43.16 13.8282C40.36 11.7482 36.92 10.7082 32.84 10.7082C28.76 10.7082 25.28 11.7482 22.4 13.8282C19.6 15.8282 17.32 18.3482 15.56 21.3882C13.8 24.4282 12.52 27.7082 11.72 31.2282C10.92 34.7482 10.52 37.9482 10.52 40.8282C10.52 45.0682 11.08 49.0282 12.2 52.7082C13.32 56.3882 14.88 59.5882 16.88 62.3082ZM129.465 79.9482H76.3053C81.2653 74.9882 86.0653 70.1882 90.7053 65.5482C95.3453 60.8282 99.4653 56.2682 103.065 51.8682C106.665 47.5482 109.545 43.3482 111.705 39.2682C113.865 35.1082 114.945 31.1482 114.945 27.3882C114.945 24.4282 114.465 21.9082 113.505 19.8282C112.545 17.7482 111.345 16.0282 109.905 14.6682C108.385 13.3082 106.745 12.3082 104.985 11.6682C103.305 11.0282 101.745 10.7082 100.305 10.7082C97.2653 10.7082 94.7853 11.2282 92.8653 12.2682C90.9453 13.3082 89.4253 14.5882 88.3053 16.1082C87.1853 17.6282 86.3853 19.2282 85.9053 20.9082C85.5053 22.5882 85.3053 24.0682 85.3053 25.3482C85.3053 27.9882 85.7053 30.3482 86.5053 32.4282C87.3053 34.4282 88.4653 36.2282 89.9853 37.8282L83.9853 43.9482C81.2653 42.1882 79.1053 39.6682 77.5053 36.3882C75.9853 33.0282 75.2253 29.3482 75.2253 25.3482C75.2253 22.1482 75.7453 19.0682 76.7853 16.1082C77.9053 13.1482 79.5453 10.5482 81.7053 8.30824C83.7853 6.06824 86.3853 4.30824 89.5053 3.02824C92.6253 1.66824 96.2253 0.988236 100.305 0.988236C103.985 0.988236 107.345 1.66824 110.385 3.02824C113.425 4.38824 116.025 6.18824 118.185 8.42824C120.345 10.7482 122.025 13.4282 123.225 16.4682C124.425 19.4282 125.025 22.5882 125.025 25.9482C125.025 29.9482 124.305 33.8282 122.865 37.5882C121.505 41.2682 119.705 44.9482 117.465 48.6282C115.145 52.3082 112.505 55.9482 109.545 59.5482C106.585 63.0682 103.505 66.6282 100.305 70.2282H119.985V59.0682H129.465V79.9482Z" fill="url(#paint0_linear_168_592)"/>
<defs>
<linearGradient id="paint0_linear_168_592" x1="-4" y1="49.9482" x2="133" y2="49.9482" gradientUnits="userSpaceOnUse">
<stop stop-color="#DA4731"/>
<stop offset="1" stop-color="#9732BC"/>
</linearGradient>
</defs>
</svg>
