<svg width="404" height="372" viewBox="0 0 404 372" fill="none" xmlns="http://www.w3.org/2000/svg">
<g clip-path="url(#clip0_168_784)">
<path d="M261.258 85.8211H259.295V32.0787C259.295 27.994 258.491 23.9493 256.927 20.1755C255.363 16.4017 253.071 12.9728 250.181 10.0845C247.291 7.19613 243.861 4.90498 240.086 3.34183C236.31 1.77867 232.264 0.974124 228.177 0.974121H114.266C110.18 0.974111 106.133 1.77865 102.358 3.34179C98.5824 4.90493 95.152 7.19607 92.2623 10.0844C89.3727 12.9727 87.0806 16.4017 85.5167 20.1754C83.9529 23.9492 83.148 27.9939 83.1479 32.0786V326.913C83.1479 335.163 86.4265 343.074 92.2623 348.908C98.0981 354.741 106.013 358.018 114.266 358.018H228.177C236.43 358.018 244.345 354.741 250.181 348.908C256.017 343.074 259.295 335.163 259.295 326.913V124.076H261.258V85.8211Z" fill="#212121"/>
<path d="M229.433 9.06642H214.564C215.248 10.7421 215.509 12.5602 215.324 14.3605C215.139 16.1607 214.514 17.888 213.504 19.39C212.495 20.8921 211.131 22.1228 209.533 22.9738C207.935 23.8249 206.152 24.2701 204.342 24.2702H139.084C137.273 24.2701 135.49 23.8249 133.893 22.9738C132.295 22.1228 130.931 20.8921 129.921 19.39C128.911 17.888 128.286 16.1607 128.101 14.3605C127.917 12.5602 128.178 10.7421 128.861 9.06641H114.974C108.81 9.0664 102.9 11.5137 98.5414 15.8699C94.1832 20.2261 91.7349 26.1343 91.7349 32.2949V326.697C91.7349 329.747 92.3359 332.768 93.5038 335.586C94.6717 338.404 96.3834 340.965 98.5413 343.122C100.699 345.279 103.261 346.99 106.081 348.157C108.9 349.325 111.922 349.926 114.974 349.926H229.433C232.485 349.926 235.507 349.325 238.326 348.157C241.146 346.99 243.707 345.279 245.865 343.122C248.023 340.965 249.735 338.404 250.903 335.586C252.071 332.768 252.672 329.747 252.672 326.697V32.295C252.672 29.2445 252.071 26.224 250.903 23.4058C249.735 20.5876 248.023 18.0269 245.865 15.8699C243.707 13.7129 241.146 12.0019 238.326 10.8346C235.507 9.66724 232.485 9.06642 229.433 9.06642Z" fill="#F2F2F2"/>
<path d="M150.251 369.834H148.778L151.723 173.106H153.196L150.251 369.834Z" fill="#3F3D56"/>
<path d="M190.497 369.834H189.024L186.08 173.106H187.552L190.497 369.834Z" fill="#3F3D56"/>
<path d="M186.571 177.031H152.214V178.503H186.571V177.031Z" fill="#3F3D56"/>
<path d="M186.571 202.542H152.214V204.014H186.571V202.542Z" fill="#3F3D56"/>
<path d="M187.552 228.053H151.723V229.525H187.552V228.053Z" fill="#3F3D56"/>
<path d="M188.043 253.564H151.723V255.036H188.043V253.564Z" fill="#3F3D56"/>
<path d="M188.534 279.075H151.232V280.546H188.534V279.075Z" fill="#3F3D56"/>
<path d="M188.534 304.585H150.742V306.057H188.534V304.585Z" fill="#3F3D56"/>
<path d="M189.025 330.096H150.25V331.568H189.025V330.096Z" fill="#3F3D56"/>
<path d="M189.516 355.607H149.269V357.079H189.516V355.607Z" fill="#3F3D56"/>
<path d="M167.756 268.951C179.145 268.951 188.376 259.723 188.376 248.34C188.376 236.957 179.145 227.729 167.756 227.729C156.368 227.729 147.136 236.957 147.136 248.34C147.136 259.723 156.368 268.951 167.756 268.951Z" fill="#2F2E41"/>
<path d="M179.885 262.586L173.721 263.702L175.72 274.741L181.885 273.626L179.885 262.586Z" fill="#2F2E41"/>
<path d="M167.557 264.817L161.393 265.932L163.392 276.972L169.557 275.856L167.557 264.817Z" fill="#2F2E41"/>
<path d="M166.664 279.293C168.864 277.43 170.082 275.252 169.383 274.427C168.684 273.603 166.334 274.444 164.134 276.306C161.934 278.169 160.717 280.347 161.416 281.172C162.114 281.997 164.464 281.155 166.664 279.293Z" fill="#2F2E41"/>
<path d="M178.736 277.109C180.936 275.246 182.153 273.068 181.455 272.243C180.756 271.418 178.406 272.26 176.206 274.122C174.006 275.985 172.789 278.163 173.487 278.988C174.186 279.812 176.536 278.971 178.736 277.109Z" fill="#2F2E41"/>
<path d="M166.313 250.343C170.205 250.343 173.36 247.189 173.36 243.299C173.36 239.408 170.205 236.254 166.313 236.254C162.421 236.254 159.266 239.408 159.266 243.299C159.266 247.189 162.421 250.343 166.313 250.343Z" fill="#AF9D9D"/>
<path d="M163.417 243.122C164.714 243.122 165.766 242.071 165.766 240.774C165.766 239.477 164.714 238.426 163.417 238.426C162.119 238.426 161.067 239.477 161.067 240.774C161.067 242.071 162.119 243.122 163.417 243.122Z" fill="#3F3D56"/>
<path d="M184.023 225.918C184.333 218.287 177.754 211.824 169.328 211.482C160.901 211.14 153.819 217.048 153.509 224.679C153.199 232.309 159.056 234.043 167.482 234.385C175.909 234.727 183.713 233.548 184.023 225.918Z" fill="#9732BC"/>
<path d="M158.766 246.888C159.165 245.146 154.99 242.704 149.44 241.432C143.889 240.16 139.066 240.541 138.667 242.283C138.268 244.024 142.443 246.467 147.993 247.739C153.543 249.01 158.366 248.629 158.766 246.888Z" fill="#2F2E41"/>
<path d="M199.242 253.616C199.642 251.874 195.466 249.432 189.916 248.16C184.366 246.889 179.543 247.27 179.144 249.011C178.744 250.753 182.92 253.195 188.47 254.467C194.02 255.739 198.843 255.358 199.242 253.616Z" fill="#2F2E41"/>
<path d="M173.42 256.463C173.531 257.07 173.521 257.693 173.391 258.296C173.261 258.899 173.013 259.471 172.662 259.978C172.311 260.486 171.864 260.919 171.345 261.253C170.826 261.588 170.247 261.817 169.639 261.927C169.032 262.038 168.409 262.028 167.806 261.897C167.202 261.767 166.631 261.519 166.123 261.168C165.616 260.817 165.182 260.369 164.848 259.85C164.514 259.331 164.285 258.752 164.175 258.145L164.173 258.136C163.711 255.584 165.685 254.681 168.239 254.219C170.792 253.757 172.957 253.911 173.42 256.463Z" fill="#AF9D9D"/>
<path d="M238.856 126.194L106.866 138.018C106.217 138.075 105.573 137.873 105.074 137.456C104.575 137.039 104.261 136.441 104.202 135.794L101.268 103.067C101.211 102.419 101.413 101.775 101.83 101.276C102.247 100.777 102.845 100.464 103.493 100.405L235.483 88.5806C236.131 88.5233 236.776 88.7253 237.275 89.1423C237.774 89.5592 238.088 90.1571 238.147 90.8048L241.081 123.531C241.138 124.179 240.936 124.823 240.519 125.322C240.102 125.821 239.504 126.135 238.856 126.194ZM103.581 101.382C103.192 101.417 102.833 101.605 102.583 101.905C102.332 102.204 102.211 102.591 102.246 102.979L105.18 135.706C105.215 136.095 105.403 136.453 105.703 136.704C106.002 136.954 106.389 137.075 106.778 137.041L238.768 125.216C239.157 125.181 239.516 124.993 239.766 124.694C240.016 124.394 240.138 124.008 240.103 123.619L237.169 90.8924C237.134 90.5038 236.946 90.145 236.646 89.8948C236.346 89.6446 235.96 89.5235 235.571 89.5579L103.581 101.382Z" fill="#212121"/>
<path d="M122.289 127.981C127.981 127.981 132.596 123.368 132.596 117.678C132.596 111.989 127.981 107.376 122.289 107.376C116.597 107.376 111.982 111.989 111.982 117.678C111.982 123.368 116.597 127.981 122.289 127.981Z" fill="#3F3D56"/>
<path d="M145.385 108.713C145.16 108.734 144.942 108.798 144.742 108.902C144.542 109.007 144.365 109.15 144.22 109.323C144.075 109.496 143.966 109.696 143.899 109.911C143.831 110.126 143.807 110.352 143.827 110.577C143.847 110.802 143.912 111.02 144.016 111.22C144.121 111.42 144.264 111.597 144.437 111.741C144.61 111.886 144.81 111.995 145.025 112.062C145.24 112.13 145.467 112.154 145.691 112.134L226.352 104.908C226.577 104.888 226.795 104.824 226.995 104.719C227.195 104.615 227.372 104.472 227.517 104.299C227.662 104.126 227.771 103.926 227.838 103.711C227.905 103.495 227.93 103.269 227.91 103.045C227.89 102.82 227.825 102.602 227.721 102.402C227.616 102.202 227.473 102.025 227.3 101.88C227.127 101.736 226.927 101.626 226.712 101.559C226.496 101.492 226.27 101.467 226.045 101.488L145.385 108.713Z" fill="#212121"/>
<path d="M146.305 118.975C146.079 118.994 145.86 119.058 145.659 119.162C145.459 119.266 145.28 119.409 145.135 119.582C144.99 119.756 144.88 119.956 144.812 120.171C144.745 120.387 144.72 120.614 144.74 120.839C144.76 121.064 144.825 121.283 144.93 121.483C145.035 121.684 145.179 121.861 145.352 122.006C145.526 122.15 145.727 122.259 145.943 122.326C146.159 122.393 146.386 122.417 146.611 122.395L227.272 115.17C227.725 115.128 228.144 114.909 228.436 114.56C228.727 114.21 228.868 113.759 228.828 113.306C228.787 112.853 228.568 112.434 228.219 112.142C227.87 111.85 227.419 111.709 226.965 111.749L146.305 118.975Z" fill="#212121"/>
<path d="M190.68 133.879C192.764 128.43 193.066 123.481 191.355 122.827C189.643 122.173 186.566 126.061 184.482 131.511C182.398 136.961 182.096 141.91 183.808 142.563C185.519 143.217 188.596 139.329 190.68 133.879Z" fill="#2F2E41"/>
<path d="M188.908 152.035C190.778 140.517 182.953 129.664 171.429 127.795C159.906 125.926 149.048 133.748 147.178 145.266C145.308 156.785 153.134 167.637 164.657 169.506C176.181 171.376 187.038 163.553 188.908 152.035Z" fill="#2F2E41"/>
<path d="M164.832 165.232H158.411V176.733H164.832V165.232Z" fill="#2F2E41"/>
<path d="M177.676 165.232H171.254V176.733H177.676V165.232Z" fill="#2F2E41"/>
<path d="M163.762 178.873C166.718 178.873 169.113 177.975 169.113 176.867C169.113 175.759 166.718 174.861 163.762 174.861C160.807 174.861 158.411 175.759 158.411 176.867C158.411 177.975 160.807 178.873 163.762 178.873Z" fill="#2F2E41"/>
<path d="M176.605 178.605C179.561 178.605 181.957 177.707 181.957 176.599C181.957 175.491 179.561 174.593 176.605 174.593C173.65 174.593 171.254 175.491 171.254 176.599C171.254 177.707 173.65 178.605 176.605 178.605Z" fill="#2F2E41"/>
<path d="M147.539 129.002C145.832 121.361 151.288 113.641 159.725 111.758C168.162 109.875 176.385 114.542 178.092 122.182C179.799 129.823 174.207 132.641 165.77 134.524C157.333 136.407 149.246 136.642 147.539 129.002Z" fill="#9732BC"/>
<path d="M153.784 143.374C154.569 141.719 150.931 138.351 145.657 135.85C140.383 133.35 135.471 132.665 134.685 134.32C133.9 135.975 137.539 139.343 142.813 141.843C148.087 144.344 152.999 145.029 153.784 143.374Z" fill="#2F2E41"/>
<path d="M40.6887 362.881C52.3629 362.881 61.8266 353.421 61.8266 341.752C61.8266 330.083 52.3629 320.624 40.6887 320.624C29.0146 320.624 19.5508 330.083 19.5508 341.752C19.5508 353.421 29.0146 362.881 40.6887 362.881Z" fill="#2F2E41"/>
<path d="M37.4778 358.334H31.0562V369.835H37.4778V358.334Z" fill="#2F2E41"/>
<path d="M50.3211 358.334H43.8994V369.835H50.3211V358.334Z" fill="#2F2E41"/>
<path d="M36.4075 371.974C39.363 371.974 41.7589 371.076 41.7589 369.968C41.7589 368.86 39.363 367.962 36.4075 367.962C33.452 367.962 31.0562 368.86 31.0562 369.968C31.0562 371.076 33.452 371.974 36.4075 371.974Z" fill="#2F2E41"/>
<path d="M49.2508 371.707C52.2063 371.707 54.6022 370.809 54.6022 369.701C54.6022 368.593 52.2063 367.695 49.2508 367.695C46.2953 367.695 43.8994 368.593 43.8994 369.701C43.8994 370.809 46.2953 371.707 49.2508 371.707Z" fill="#2F2E41"/>
<path d="M41.2239 343.624C45.2138 343.624 48.4482 340.391 48.4482 336.403C48.4482 332.415 45.2138 329.182 41.2239 329.182C37.234 329.182 33.9995 332.415 33.9995 336.403C33.9995 340.391 37.234 343.624 41.2239 343.624Z" fill="#AF9D9D"/>
<path d="M41.2236 338.81C42.5535 338.81 43.6317 337.733 43.6317 336.403C43.6317 335.074 42.5535 333.996 41.2236 333.996C39.8936 333.996 38.8154 335.074 38.8154 336.403C38.8154 337.733 39.8936 338.81 41.2236 338.81Z" fill="#3F3D56"/>
<path d="M20.1841 322.103C18.4773 314.463 23.9332 306.743 32.3703 304.859C40.8073 302.976 49.0305 307.644 50.7372 315.284C52.444 322.924 46.8525 325.742 38.4155 327.625C29.9785 329.508 21.8909 329.744 20.1841 322.103Z" fill="#212121"/>
<path d="M56.1013 266.27C58.1853 260.82 58.4872 255.872 56.7755 255.218C55.0638 254.564 51.9868 258.452 49.9028 263.902C47.8188 269.352 47.517 274.3 49.2286 274.954C50.9403 275.608 54.0173 271.72 56.1013 266.27Z" fill="#2F2E41"/>
<path d="M54.3293 284.425C56.1993 272.907 48.3736 262.054 36.8502 260.185C25.3268 258.316 14.4693 266.138 12.5993 277.656C10.7293 289.175 18.5549 300.027 30.0784 301.897C41.6018 303.766 52.4593 295.944 54.3293 284.425Z" fill="#2F2E41"/>
<path d="M30.2537 297.623H23.832V309.123H30.2537V297.623Z" fill="#2F2E41"/>
<path d="M43.0969 297.623H36.6753V309.123H43.0969V297.623Z" fill="#2F2E41"/>
<path d="M29.1834 311.263C32.1389 311.263 34.5348 310.365 34.5348 309.257C34.5348 308.149 32.1389 307.251 29.1834 307.251C26.2279 307.251 23.832 308.149 23.832 309.257C23.832 310.365 26.2279 311.263 29.1834 311.263Z" fill="#2F2E41"/>
<path d="M42.0267 310.995C44.9822 310.995 47.3781 310.097 47.3781 308.99C47.3781 307.882 44.9822 306.984 42.0267 306.984C39.0712 306.984 36.6753 307.882 36.6753 308.99C36.6753 310.097 39.0712 310.995 42.0267 310.995Z" fill="#2F2E41"/>
<path d="M33.9993 282.913C37.9892 282.913 41.2236 279.68 41.2236 275.692C41.2236 271.704 37.9892 268.471 33.9993 268.471C30.0094 268.471 26.7749 271.704 26.7749 275.692C26.7749 279.68 30.0094 282.913 33.9993 282.913Z" fill="#AF9D9D"/>
<path d="M33.9994 278.099C35.3294 278.099 36.4076 277.021 36.4076 275.692C36.4076 274.363 35.3294 273.285 33.9994 273.285C32.6695 273.285 31.5913 274.363 31.5913 275.692C31.5913 277.021 32.6695 278.099 33.9994 278.099Z" fill="#3F3D56"/>
<path d="M12.96 261.392C11.2532 253.751 16.7091 246.031 25.1461 244.148C33.5831 242.265 41.8063 246.932 43.5131 254.573C45.2199 262.213 39.6284 265.031 31.1913 266.914C22.7543 268.797 14.6667 269.032 12.96 261.392Z" fill="#9732BC"/>
<path d="M19.2051 275.764C19.9903 274.109 16.3515 270.741 11.0776 268.241C5.80359 265.74 0.891647 265.055 0.106395 266.71C-0.678857 268.365 2.95994 271.733 8.23391 274.234C13.5079 276.734 18.4198 277.419 19.2051 275.764Z" fill="#2F2E41"/>
<path d="M23.0815 288.663C23.0815 290.731 28.4085 294.815 34.3194 294.815C40.2304 294.815 45.7726 288.993 45.7726 286.925C45.7726 284.857 40.2304 287.326 34.3194 287.326C28.4085 287.326 23.0815 286.595 23.0815 288.663Z" fill="#AF9D9D"/>
<path d="M124.347 281.537C126.431 276.087 126.733 271.139 125.022 270.485C123.31 269.831 120.233 273.719 118.149 279.169C116.065 284.619 115.763 289.567 117.475 290.221C119.186 290.875 122.263 286.987 124.347 281.537Z" fill="#2F2E41"/>
<path d="M126.993 304.108C128.863 292.589 121.037 281.737 109.514 279.867C97.9904 277.998 87.1329 285.82 85.2629 297.339C83.3929 308.857 91.2185 319.71 102.742 321.579C114.265 323.448 125.123 315.626 126.993 304.108Z" fill="#2F2E41"/>
<path d="M96.4956 317.305H102.917L101.66 331.077L96.4956 328.805V317.305Z" fill="#2F2E41"/>
<path d="M101.924 335.124C102.901 334.6 102.559 332.065 101.161 329.462C99.7627 326.859 97.8378 325.174 96.8613 325.698C95.8848 326.222 96.2266 328.757 97.6247 331.36C99.0228 333.963 100.948 335.648 101.924 335.124Z" fill="#2F2E41"/>
<path d="M110.495 317.341H116.916L115.66 331.113L110.495 328.841V317.341Z" fill="#2F2E41"/>
<path d="M115.924 335.16C116.9 334.636 116.558 332.101 115.16 329.498C113.762 326.895 111.837 325.21 110.861 325.734C109.884 326.258 110.226 328.793 111.624 331.396C113.022 333.999 114.947 335.684 115.924 335.16Z" fill="#2F2E41"/>
<path d="M106.663 302.595C110.653 302.595 113.887 299.362 113.887 295.374C113.887 291.386 110.653 288.153 106.663 288.153C102.673 288.153 99.4385 291.386 99.4385 295.374C99.4385 299.362 102.673 302.595 106.663 302.595Z" fill="#AF9D9D"/>
<path d="M106.663 297.781C107.993 297.781 109.071 296.704 109.071 295.374C109.071 294.045 107.993 292.967 106.663 292.967C105.333 292.967 104.255 294.045 104.255 295.374C104.255 296.704 105.333 297.781 106.663 297.781Z" fill="#3F3D56"/>
<path d="M85.623 281.074C83.9163 273.434 89.3722 265.713 97.8092 263.83C106.246 261.947 114.469 266.615 116.176 274.255C117.883 281.895 112.291 284.713 103.854 286.596C95.4174 288.479 87.3298 288.715 85.623 281.074Z" fill="#FF5429"/>
<path d="M90.0711 294.511C91.5451 293.423 89.9287 288.736 86.4607 284.043C82.9928 279.35 78.9866 276.428 77.5126 277.516C76.0386 278.604 77.6551 283.291 81.123 287.984C84.591 292.677 88.5972 295.599 90.0711 294.511Z" fill="#2F2E41"/>
<path d="M116.441 311.618C116.441 309.913 112.051 306.548 107.179 306.548C102.307 306.548 97.7397 311.346 97.7397 313.05C97.7397 314.755 102.307 312.72 107.179 312.72C112.051 312.72 116.441 313.322 116.441 311.618Z" fill="#AF9D9D"/>
<path d="M94.298 283.034C88.1741 283.037 82.1098 281.833 76.4515 279.492C70.7933 277.15 65.6522 273.717 61.322 269.389C56.9917 265.061 53.5573 259.922 51.215 254.266C48.8726 248.611 47.6683 242.549 47.6709 236.428C47.6709 236.33 47.6711 236.228 47.6767 236.13C47.8195 210.607 68.7341 189.821 94.298 189.821C104.816 189.823 115.026 193.379 123.267 199.911C131.509 206.444 137.299 215.57 139.697 225.807C142.096 236.044 140.961 246.791 136.478 256.302C131.995 265.813 124.427 273.53 115.003 278.199C108.571 281.398 101.482 283.054 94.298 283.034ZM94.298 190.802C82.2469 190.829 70.6931 195.608 62.1472 204.101C53.6012 212.594 48.7536 224.115 48.6576 236.161C48.6523 236.265 48.6525 236.348 48.6525 236.428C48.6494 247.998 53.0443 259.138 60.9478 267.592C68.8512 276.045 79.6727 281.182 91.2219 281.962C102.771 282.741 114.185 279.106 123.154 271.791C132.123 264.477 137.977 254.029 139.531 242.564C140.408 236.112 139.894 229.548 138.023 223.312C136.151 217.076 132.966 211.313 128.681 206.409C124.396 201.506 119.111 197.576 113.18 194.884C107.25 192.192 100.811 190.801 94.298 190.802Z" fill="#3F3D56"/>
<path d="M115.414 238.684L83.5003 220.267C83.351 220.181 83.1818 220.135 83.0095 220.135C82.8371 220.135 82.6679 220.181 82.5186 220.267C82.3694 220.353 82.2455 220.477 82.1593 220.626C82.0732 220.775 82.0278 220.944 82.0278 221.116V257.951C82.0278 258.123 82.0732 258.292 82.1593 258.442C82.2455 258.591 82.3694 258.715 82.5186 258.801C82.6679 258.887 82.8371 258.932 83.0095 258.932C83.1818 258.932 83.351 258.887 83.5003 258.801L115.414 240.383C115.563 240.297 115.687 240.173 115.773 240.024C115.859 239.875 115.905 239.706 115.905 239.534C115.905 239.361 115.859 239.192 115.773 239.043C115.687 238.894 115.563 238.77 115.414 238.684L83.5003 220.267C83.351 220.181 83.1818 220.135 83.0095 220.135C82.8371 220.135 82.6679 220.181 82.5186 220.267C82.3694 220.353 82.2455 220.477 82.1593 220.626C82.0732 220.775 82.0278 220.944 82.0278 221.116V257.951C82.0278 258.123 82.0732 258.292 82.1593 258.442C82.2455 258.591 82.3694 258.715 82.5186 258.801C82.6679 258.887 82.8371 258.932 83.0095 258.932C83.1818 258.932 83.351 258.887 83.5003 258.801L115.414 240.383C115.563 240.297 115.687 240.173 115.773 240.024C115.859 239.875 115.905 239.706 115.905 239.534C115.905 239.361 115.859 239.192 115.773 239.043C115.687 238.894 115.563 238.77 115.414 238.684Z" fill="#9732BC"/>
<path d="M111.476 368.853C125.843 368.853 137.489 368.414 137.489 367.872C137.489 367.33 125.843 366.891 111.476 366.891C97.1098 366.891 85.4634 367.33 85.4634 367.872C85.4634 368.414 97.1098 368.853 111.476 368.853Z" fill="#212121"/>
<path d="M377.987 359.532C392.354 359.532 404 359.093 404 358.551C404 358.009 392.354 357.57 377.987 357.57C363.621 357.57 351.974 358.009 351.974 358.551C351.974 359.093 363.621 359.532 377.987 359.532Z" fill="#212121"/>
<path d="M377.863 357.724L261.214 294.868C260.641 294.559 260.215 294.035 260.029 293.412C259.842 292.789 259.91 292.118 260.218 291.545L275.817 262.622C276.126 262.05 276.65 261.624 277.274 261.437C277.897 261.251 278.569 261.319 279.142 261.627L395.79 324.483C396.363 324.792 396.789 325.316 396.976 325.939C397.162 326.562 397.094 327.234 396.786 327.806L381.187 356.729C380.878 357.301 380.354 357.727 379.731 357.914C379.107 358.1 378.436 358.032 377.863 357.724ZM278.676 262.49C278.332 262.306 277.929 262.265 277.555 262.377C277.181 262.489 276.867 262.744 276.681 263.088L261.082 292.01C260.897 292.354 260.856 292.757 260.968 293.131C261.08 293.505 261.336 293.819 261.68 294.004L378.328 356.861C378.672 357.045 379.075 357.086 379.449 356.974C379.823 356.862 380.138 356.607 380.323 356.264L395.922 327.341C396.107 326.997 396.148 326.594 396.036 326.22C395.924 325.847 395.668 325.532 395.325 325.347L278.676 262.49Z" fill="#212121"/>
<path d="M285.299 296.698C290.991 296.698 295.606 292.085 295.606 286.395C295.606 280.706 290.991 276.093 285.299 276.093C279.606 276.093 274.992 280.706 274.992 286.395C274.992 292.085 279.606 296.698 285.299 296.698Z" fill="#9732BC"/>
<path d="M309.513 291.641C309.315 291.533 309.097 291.466 308.872 291.444C308.648 291.421 308.421 291.442 308.205 291.507C307.989 291.571 307.787 291.678 307.612 291.82C307.437 291.963 307.292 292.138 307.185 292.337C307.078 292.535 307.011 292.753 306.988 292.977C306.965 293.202 306.987 293.429 307.052 293.645C307.117 293.861 307.223 294.062 307.366 294.237C307.508 294.411 307.684 294.556 307.883 294.663L379.168 333.076C379.367 333.183 379.584 333.25 379.809 333.273C380.033 333.296 380.26 333.274 380.476 333.21C380.692 333.145 380.894 333.038 381.069 332.896C381.244 332.753 381.389 332.578 381.496 332.379C381.603 332.181 381.67 331.963 381.693 331.739C381.716 331.514 381.694 331.288 381.629 331.072C381.565 330.856 381.458 330.654 381.315 330.48C381.173 330.305 380.997 330.16 380.798 330.053L309.513 291.641Z" fill="#212121"/>
<path d="M304.622 300.709C304.221 300.493 303.75 300.445 303.314 300.576C302.877 300.706 302.511 301.005 302.295 301.406C302.078 301.807 302.03 302.277 302.161 302.713C302.292 303.149 302.591 303.516 302.992 303.732L374.277 342.144C374.475 342.251 374.693 342.318 374.917 342.341C375.142 342.364 375.369 342.342 375.585 342.278C375.801 342.213 376.002 342.106 376.177 341.964C376.352 341.821 376.497 341.646 376.604 341.448C376.711 341.249 376.778 341.031 376.801 340.807C376.824 340.583 376.802 340.356 376.738 340.14C376.673 339.924 376.566 339.723 376.424 339.548C376.281 339.373 376.106 339.228 375.907 339.121L304.622 300.709Z" fill="#212121"/>
</g>
<defs>
<clipPath id="clip0_168_784">
<rect width="404" height="371" fill="white" transform="translate(0 0.974121)"/>
</clipPath>
</defs>
</svg>
