<svg width="123" height="81" viewBox="0 0 123 81" fill="none" xmlns="http://www.w3.org/2000/svg">
<path d="M54.56 70.1082C51.52 73.6282 48.08 76.3082 44.24 78.1482C40.4 79.9882 36.44 80.9082 32.36 80.9082C28.28 80.9082 24.32 79.9482 20.48 78.0282C16.64 76.1082 13.24 73.3882 10.28 69.8682C7.24 66.3482 4.84 62.1482 3.08 57.2682C1.32 52.3082 0.44 46.7882 0.44 40.7082C0.44 34.6282 1.28 29.1482 2.96 24.2682C4.72 19.3082 7.08 15.1082 10.04 11.6682C12.92 8.22824 16.32 5.58824 20.24 3.74824C24.16 1.90824 28.36 0.988236 32.84 0.988236C37.32 0.988236 41.52 1.94824 45.44 3.86824C49.36 5.78824 52.76 8.46824 55.64 11.9082C58.52 15.4282 60.76 19.6682 62.36 24.6282C63.96 29.5882 64.76 35.1082 64.76 41.1882C64.76 47.2682 63.8 52.7482 61.88 57.6282C60.04 62.5082 57.6 66.6682 54.56 70.1082ZM16.88 62.3082C18.88 65.0282 21.2 67.1882 23.84 68.7882C26.48 70.3882 29.32 71.1882 32.36 71.1882C35.32 71.1882 38.16 70.4282 40.88 68.9082C43.6 67.3882 46 65.2682 48.08 62.5482C50.08 59.8282 51.68 56.6282 52.88 52.9482C54.08 49.2682 54.68 45.3082 54.68 41.0682C54.68 38.1882 54.32 34.9882 53.6 31.4682C52.88 27.9482 51.68 24.6282 50 21.5082C48.24 18.4682 45.96 15.9082 43.16 13.8282C40.36 11.7482 36.92 10.7082 32.84 10.7082C28.76 10.7082 25.28 11.7482 22.4 13.8282C19.6 15.8282 17.32 18.3482 15.56 21.3882C13.8 24.4282 12.52 27.7082 11.72 31.2282C10.92 34.7482 10.52 37.9482 10.52 40.8282C10.52 45.0682 11.08 49.0282 12.2 52.7082C13.32 56.3882 14.88 59.5882 16.88 62.3082ZM114.705 73.2282C112.305 75.6282 109.505 77.5082 106.305 78.8682C103.185 80.2282 99.8253 80.9082 96.2253 80.9082C92.3853 80.9082 88.8253 80.1482 85.5453 78.6282C82.2653 77.0282 79.4253 74.9482 77.0253 72.3882L84.3453 65.5482C85.7853 67.3082 87.5053 68.7082 89.5053 69.7482C91.5853 70.7082 93.8253 71.1882 96.2253 71.1882C98.4653 71.1882 100.545 70.7482 102.465 69.8682C104.465 68.9882 106.225 67.7882 107.745 66.2682C109.185 64.8282 110.345 63.1482 111.225 61.2282C112.105 59.2282 112.545 57.1082 112.545 54.8682C112.545 52.6282 112.105 50.5482 111.225 48.6282C110.345 46.6282 109.185 44.9082 107.745 43.4682C106.225 42.0282 104.465 40.9082 102.465 40.1082C100.545 39.2282 98.4653 38.7882 96.2253 38.7882C94.7853 38.7882 93.4253 38.9482 92.1453 39.2682C90.8653 39.5882 89.6253 40.1082 88.4253 40.8282L105.105 11.7882H91.7853V17.4282H82.3053V1.94824H121.785L104.625 30.5082C107.265 31.4682 109.665 32.7482 111.825 34.3482C113.985 35.8682 115.865 37.6682 117.465 39.7482C119.065 41.8282 120.305 44.1482 121.185 46.7082C122.065 49.2682 122.505 51.9882 122.505 54.8682C122.505 58.4682 121.785 61.8682 120.345 65.0682C118.985 68.1882 117.105 70.9082 114.705 73.2282Z" fill="url(#paint0_linear_168_753)"/>
<defs>
<linearGradient id="paint0_linear_168_753" x1="-4" y1="49.9482" x2="132" y2="49.9482" gradientUnits="userSpaceOnUse">
<stop stop-color="#DA4731"/>
<stop offset="1" stop-color="#9732BC"/>
</linearGradient>
</defs>
</svg>
