<svg width="451" height="248" viewBox="0 0 451 248" fill="none" xmlns="http://www.w3.org/2000/svg">
<g clip-path="url(#clip0_168_551)">
<path d="M24.6312 225.917C15.0206 234.134 13.0259 247.61 13.0259 247.61C13.0259 247.61 26.6129 247.764 36.2234 239.548C45.8339 231.331 47.8287 217.855 47.8287 217.855C47.8287 217.855 34.2417 217.701 24.6312 225.917Z" fill="#F2F2F2"/>
<path d="M29.072 229.186C24.9783 241.166 13.2088 247.974 13.2088 247.974C13.2088 247.974 8.0766 235.36 12.1703 223.38C16.2641 211.401 28.0335 204.592 28.0335 204.592C28.0335 204.592 33.1657 217.207 29.072 229.186Z" fill="#F2F2F2"/>
<path d="M129.387 51.949C127.212 49.1239 124.139 46.51 123.944 43.024C123.766 39.8266 126.144 36.6521 125.141 33.5932C124.37 31.2413 121.826 29.8221 119.34 29.0706C114.581 27.6525 109.488 27.8491 104.852 29.6299L105.104 29.4519C102.274 28.4413 98.9665 29.4846 96.7402 31.417C94.5137 33.3493 93.1906 36.0278 92.164 38.7119C91.1371 41.396 90.3417 44.1782 88.9152 46.6946C87.4884 49.211 85.3042 51.4994 82.4224 52.3691C83.3871 54.2985 86.403 54.9605 88.1719 53.6309C88.6238 53.263 89.0299 52.842 89.3817 52.3769C90.5614 50.9387 91.7411 49.5004 92.9209 48.0621C94.1348 50.2267 92.3214 53.2143 93.8135 55.2182C94.5829 56.2517 95.9881 56.6441 97.2932 56.9256C107.494 59.1078 118.075 58.7143 128.086 55.7805C128.891 55.5428 129.778 55.2154 130.112 54.4852C130.497 53.6422 129.958 52.6918 129.387 51.949Z" fill="#2F2E41"/>
<path d="M158.31 62.9736C158.246 63.2544 158.204 63.5398 158.185 63.8271L135.89 76.7227L130.471 73.5948L124.694 81.1777L133.751 87.6497C134.483 88.1725 135.364 88.4433 136.262 88.4214C137.16 88.3995 138.027 88.086 138.732 87.528L161.722 69.3436C162.76 69.7286 163.89 69.7879 164.962 69.5134C166.034 69.2389 166.997 68.6437 167.723 67.807C168.449 66.9703 168.904 65.9317 169.028 64.8294C169.151 63.7271 168.936 62.6133 168.413 61.6361C167.889 60.6589 167.082 59.8647 166.097 59.3591C165.112 58.8535 163.997 58.6605 162.9 58.8057C161.804 58.9509 160.777 59.4274 159.957 60.172C159.137 60.9165 158.562 61.8937 158.31 62.9736Z" fill="#FFB7B7"/>
<path d="M135.145 77.3334L127.939 86.6968C127.734 86.9632 127.474 87.1822 127.177 87.3389C126.88 87.4955 126.553 87.5861 126.218 87.6045C125.883 87.6229 125.548 87.5687 125.235 87.4455C124.923 87.3223 124.641 87.1331 124.408 86.8908L116.251 78.3978C114.895 77.339 114.014 75.7843 113.801 74.0748C113.588 72.3654 114.06 70.641 115.114 69.2801C116.167 67.9193 117.716 67.0332 119.421 66.8164C121.125 66.5996 122.846 67.0698 124.205 68.1237L134.436 73.8596C134.729 74.0239 134.983 74.2495 135.181 74.5212C135.379 74.7929 135.517 75.1041 135.584 75.4338C135.651 75.7635 135.647 76.1038 135.571 76.4316C135.495 76.7595 135.35 77.067 135.145 77.3334Z" fill="#9732BC"/>
<path d="M125.228 240.479L131.591 240.479L134.618 215.872L125.227 215.872L125.228 240.479Z" fill="#FFB7B7"/>
<path d="M123.605 238.396L136.136 238.396H136.136C138.254 238.396 140.285 239.239 141.783 240.741C143.28 242.242 144.122 244.279 144.122 246.402V246.662L123.605 246.663L123.605 238.396Z" fill="#2F2E41"/>
<path d="M81.6324 240.479L87.9953 240.479L91.0221 215.872L81.6313 215.872L81.6324 240.479Z" fill="#FFB7B7"/>
<path d="M80.0093 238.396L92.54 238.396H92.5405C94.6584 238.396 96.6894 239.239 98.187 240.741C99.6846 242.242 100.526 244.279 100.526 246.402V246.662L80.0097 246.663L80.0093 238.396Z" fill="#2F2E41"/>
<path d="M121.407 48.4703C122.07 42.4175 117.713 36.9722 111.676 36.3077C105.639 35.6433 100.208 40.0114 99.5456 46.0642C98.8829 52.1169 103.24 57.5623 109.277 58.2267C115.313 58.8912 120.745 54.523 121.407 48.4703Z" fill="#FFB7B7"/>
<path d="M116.91 63.7955L123.389 67.0133C123.389 67.0133 130.627 79.6253 126.475 91.5936C124.459 97.4044 130.136 115.927 130.136 115.927C130.136 115.927 138.931 199.829 138.959 225.723C128.032 227.408 117.652 229.489 117.133 224.286C116.614 219.082 110.933 157.556 110.933 157.556C110.933 157.556 103.12 225.847 96.892 226.888C90.664 227.928 78.208 226.367 78.208 226.367C78.208 226.367 88.0968 126.334 94.8437 120.09L95.8817 114.887L95.854 68.1773L103.627 64.458L116.91 63.7955Z" fill="#2F2E41"/>
<path d="M93.7354 134.705C94.4523 134.316 95.0754 133.775 95.5608 133.118C96.0463 132.462 96.3822 131.706 96.5451 130.906C96.708 130.105 96.6937 129.278 96.5034 128.483C96.313 127.689 95.9513 126.946 95.4435 126.306L102.978 75.9552L93.1344 75.4814L87.2614 125.624C86.2468 126.551 85.6064 127.818 85.4615 129.186C85.3167 130.555 85.6774 131.928 86.4754 133.048C87.2734 134.167 88.4532 134.954 89.7913 135.26C91.1293 135.565 92.5327 135.368 93.7354 134.705Z" fill="#FFB7B7"/>
<path d="M102.764 88.5714L90.992 87.8262C90.6571 87.805 90.3306 87.7117 90.0349 87.5526C89.7392 87.3935 89.4811 87.1723 89.2783 86.9042C89.0755 86.6361 88.9327 86.3273 88.8597 85.9989C88.7867 85.6704 88.7851 85.3301 88.8551 85.001L91.308 73.4696C91.4256 71.7518 92.2179 70.1508 93.5111 69.0178C94.8043 67.8849 96.4929 67.3124 98.2065 67.4259C99.9202 67.5394 101.519 68.3297 102.652 69.6235C103.786 70.9172 104.361 72.6087 104.252 74.3272L105.239 86.038C105.267 86.3734 105.222 86.7108 105.109 87.0274C104.995 87.344 104.815 87.6324 104.58 87.8728C104.345 88.1132 104.061 88.3001 103.748 88.4206C103.435 88.5412 103.099 88.5926 102.764 88.5714Z" fill="#9732BC"/>
<path d="M428.115 40.8256H167.788C165.888 40.8256 164.065 41.5825 162.722 42.9297C161.378 44.277 160.623 46.1043 160.623 48.0097V193.44C160.623 195.345 161.378 197.172 162.722 198.519C164.065 199.867 165.888 200.624 167.788 200.624H428.115C430.015 200.624 431.838 199.867 433.182 198.519C434.525 197.172 435.28 195.345 435.28 193.44V48.0097C435.28 46.1043 434.525 44.277 433.182 42.9297C431.838 41.5825 430.015 40.8256 428.115 40.8256Z" fill="#3F3D56"/>
<path d="M425.674 53.5219H170.229V197.997H425.674V53.5219Z" fill="white"/>
<path d="M297.733 49.5816C299.18 49.5816 300.353 48.4056 300.353 46.9548C300.353 45.5041 299.18 44.328 297.733 44.328C296.286 44.328 295.113 45.5041 295.113 46.9548C295.113 48.4056 296.286 49.5816 297.733 49.5816Z" fill="white"/>
<path d="M352.621 197.997H170.229V53.5217L352.621 197.997Z" fill="#F2F2F2"/>
<path d="M442.452 195.37H417.523V193.569C417.523 193.474 417.485 193.384 417.418 193.317C417.352 193.25 417.261 193.212 417.167 193.212H408.619C408.572 193.212 408.526 193.221 408.483 193.239C408.44 193.257 408.4 193.283 408.367 193.317C408.334 193.35 408.308 193.389 408.29 193.432C408.272 193.476 408.263 193.522 408.263 193.569V195.37H402.921V193.569C402.921 193.522 402.912 193.476 402.894 193.432C402.876 193.389 402.85 193.35 402.817 193.317C402.784 193.283 402.744 193.257 402.701 193.239C402.658 193.221 402.612 193.212 402.565 193.212H394.018C393.971 193.212 393.925 193.221 393.881 193.239C393.838 193.257 393.799 193.283 393.766 193.317C393.733 193.35 393.707 193.389 393.689 193.432C393.671 193.476 393.662 193.522 393.662 193.569V195.37H388.319V193.569C388.319 193.522 388.31 193.476 388.292 193.432C388.274 193.389 388.248 193.35 388.215 193.317C388.182 193.283 388.143 193.257 388.1 193.239C388.056 193.221 388.01 193.212 387.963 193.212H379.416C379.369 193.212 379.323 193.221 379.28 193.239C379.236 193.257 379.197 193.283 379.164 193.317C379.131 193.35 379.105 193.389 379.087 193.432C379.069 193.476 379.06 193.522 379.06 193.569V195.37H373.718V193.569C373.718 193.522 373.709 193.476 373.691 193.432C373.673 193.389 373.646 193.35 373.613 193.317C373.58 193.283 373.541 193.257 373.498 193.239C373.455 193.221 373.408 193.212 373.362 193.212H364.814C364.768 193.212 364.721 193.221 364.678 193.239C364.635 193.257 364.596 193.283 364.562 193.317C364.529 193.35 364.503 193.389 364.485 193.432C364.467 193.476 364.458 193.522 364.458 193.569V195.37H359.116V193.569C359.116 193.522 359.107 193.476 359.089 193.432C359.071 193.389 359.045 193.35 359.012 193.317C358.979 193.283 358.939 193.257 358.896 193.239C358.853 193.221 358.807 193.212 358.76 193.212H350.213C350.166 193.212 350.12 193.221 350.076 193.239C350.033 193.257 349.994 193.283 349.961 193.317C349.928 193.35 349.901 193.389 349.884 193.432C349.866 193.476 349.856 193.522 349.856 193.569V195.37H344.514V193.569C344.514 193.522 344.505 193.476 344.487 193.432C344.469 193.389 344.443 193.35 344.41 193.317C344.377 193.283 344.338 193.257 344.295 193.239C344.251 193.221 344.205 193.212 344.158 193.212H335.611C335.564 193.212 335.518 193.221 335.475 193.239C335.431 193.257 335.392 193.283 335.359 193.317C335.326 193.35 335.3 193.389 335.282 193.432C335.264 193.476 335.255 193.522 335.255 193.569V195.37H329.913V193.569C329.913 193.522 329.904 193.476 329.886 193.432C329.868 193.389 329.841 193.35 329.808 193.317C329.775 193.283 329.736 193.257 329.693 193.239C329.65 193.221 329.603 193.212 329.557 193.212H262.602C262.556 193.212 262.509 193.221 262.466 193.239C262.423 193.257 262.384 193.283 262.351 193.317C262.318 193.35 262.291 193.389 262.273 193.432C262.256 193.476 262.246 193.522 262.246 193.569V195.37H256.904V193.569C256.904 193.522 256.895 193.476 256.877 193.432C256.859 193.389 256.833 193.35 256.8 193.317C256.767 193.283 256.728 193.257 256.684 193.239C256.641 193.221 256.595 193.212 256.548 193.212H248.001C247.954 193.212 247.908 193.221 247.865 193.239C247.821 193.257 247.782 193.283 247.749 193.317C247.716 193.35 247.69 193.389 247.672 193.432C247.654 193.476 247.645 193.522 247.645 193.569V195.37H242.303V193.569C242.303 193.522 242.293 193.476 242.275 193.432C242.258 193.389 242.231 193.35 242.198 193.317C242.165 193.283 242.126 193.257 242.083 193.239C242.04 193.221 241.993 193.212 241.946 193.212H233.399C233.352 193.212 233.306 193.221 233.263 193.239C233.22 193.257 233.18 193.283 233.147 193.317C233.114 193.35 233.088 193.389 233.07 193.432C233.052 193.476 233.043 193.522 233.043 193.569V195.37H227.701V193.569C227.701 193.522 227.692 193.476 227.674 193.432C227.656 193.389 227.63 193.35 227.597 193.317C227.564 193.283 227.524 193.257 227.481 193.239C227.438 193.221 227.392 193.212 227.345 193.212H218.797C218.751 193.212 218.704 193.221 218.661 193.239C218.618 193.257 218.579 193.283 218.546 193.317C218.513 193.35 218.486 193.389 218.468 193.432C218.451 193.476 218.441 193.522 218.441 193.569V195.37H213.099V193.569C213.099 193.522 213.09 193.476 213.072 193.432C213.054 193.389 213.028 193.35 212.995 193.317C212.962 193.283 212.923 193.257 212.879 193.239C212.836 193.221 212.79 193.212 212.743 193.212H204.196C204.149 193.212 204.103 193.221 204.059 193.239C204.016 193.257 203.977 193.283 203.944 193.317C203.911 193.35 203.885 193.389 203.867 193.432C203.849 193.476 203.84 193.522 203.84 193.569V195.37H198.498V193.569C198.498 193.522 198.488 193.476 198.47 193.432C198.453 193.389 198.426 193.35 198.393 193.317C198.36 193.283 198.321 193.257 198.278 193.239C198.234 193.221 198.188 193.212 198.141 193.212H189.594C189.5 193.212 189.409 193.25 189.342 193.317C189.275 193.384 189.238 193.474 189.238 193.569V195.37H183.896V193.569C183.896 193.522 183.887 193.476 183.869 193.432C183.851 193.389 183.825 193.35 183.792 193.317C183.758 193.283 183.719 193.257 183.676 193.239C183.633 193.221 183.586 193.212 183.54 193.212H174.992C174.898 193.212 174.807 193.25 174.741 193.317C174.674 193.384 174.636 193.474 174.636 193.569V195.37H158.254C157.131 195.37 156.02 195.592 154.983 196.022C153.946 196.453 153.004 197.084 152.21 197.88C151.416 198.676 150.787 199.621 150.357 200.66C149.928 201.7 149.707 202.814 149.707 203.94V207.815C149.707 210.088 150.607 212.267 152.21 213.875C153.813 215.482 155.987 216.385 158.254 216.385H442.452C444.719 216.385 446.893 215.482 448.496 213.875C450.099 212.267 451 210.088 451 207.815V203.94C451 202.814 450.779 201.7 450.349 200.66C449.92 199.621 449.29 198.676 448.496 197.88C447.703 197.084 446.76 196.453 445.723 196.022C444.686 195.592 443.575 195.37 442.452 195.37Z" fill="#3F3D56"/>
<path d="M302.865 179.053C302.78 179.256 302.684 179.454 302.578 179.648C302.021 180.679 301.233 181.567 300.277 182.243C299.145 183.041 297.816 183.513 296.435 183.606C295.053 183.7 293.673 183.411 292.445 182.771C291.216 182.132 290.186 181.166 289.467 179.98C288.748 178.794 288.368 177.433 288.368 176.045V174.822H289.403C293.426 177.428 298.079 178.891 302.865 179.053Z" fill="#3F3D56"/>
<path d="M317.638 175.18V176.045C317.639 177.729 317.08 179.365 316.049 180.695C315.019 182.025 313.576 182.973 311.948 183.389C310.321 183.805 308.601 183.665 307.062 182.992C305.522 182.319 304.25 181.151 303.447 179.672C303.336 179.474 303.236 179.27 303.147 179.062C303.368 179.068 303.586 179.071 303.807 179.071C308.687 179.077 313.473 177.73 317.638 175.18Z" fill="#3F3D56"/>
<path d="M327.821 83.7069C327.594 83.6735 327.364 83.6522 327.134 83.6371C329.749 89.6778 329.93 96.4987 327.64 102.67C327.87 102.643 328.097 102.607 328.324 102.564C330.541 102.134 332.534 100.928 333.947 99.1624C335.361 97.3967 336.103 95.1853 336.043 92.922C335.983 90.6587 335.123 88.4903 333.618 86.8028C332.112 85.1153 330.058 84.0182 327.821 83.7069Z" fill="#3F3D56"/>
<path d="M280.479 83.6371C280.249 83.6523 280.019 83.6735 279.792 83.7069C277.556 84.0182 275.502 85.1153 273.996 86.8028C272.491 88.4903 271.631 90.6587 271.571 92.922C271.51 95.1853 272.253 97.3966 273.667 99.1623C275.08 100.928 277.073 102.134 279.29 102.564C279.517 102.607 279.744 102.643 279.974 102.67C277.684 96.4986 277.865 89.6779 280.479 83.6371Z" fill="#3F3D56"/>
<path d="M328.042 83.0205C325.549 77.0479 320.93 72.2179 315.082 69.469C309.235 66.72 302.578 66.2483 296.404 68.1455C290.229 70.0428 284.978 74.1734 281.672 79.735C278.365 85.2967 277.238 91.8921 278.51 98.2402C279.782 104.588 283.362 110.235 288.555 114.085C293.748 117.934 300.182 119.711 306.608 119.07C313.035 118.429 318.994 115.416 323.328 110.616C327.662 105.816 330.062 99.572 330.062 93.0972C330.06 89.6374 329.374 86.2123 328.042 83.0205ZM327.861 101.984C325.647 107.952 321.284 112.873 315.633 115.778C309.981 118.683 303.45 119.362 297.324 117.681C291.199 116.001 285.922 112.082 282.534 106.696C279.145 101.311 277.89 94.8488 279.015 88.5819C280.14 82.315 283.564 76.6972 288.613 72.8343C293.661 68.9715 299.969 67.1432 306.295 67.7095C312.621 68.2757 318.506 71.1954 322.793 75.894C327.079 80.5925 329.456 86.7295 329.456 93.0972C329.455 96.1309 328.915 99.1403 327.861 101.984Z" fill="#3F3D56"/>
<path d="M317.126 87.865H290.487C289.082 87.865 287.735 88.4246 286.741 89.4207C285.748 90.4168 285.189 91.7678 285.189 93.1765C285.189 94.5852 285.748 95.9362 286.741 96.9323C287.735 97.9284 289.082 98.488 290.487 98.488H317.126C318.531 98.488 319.879 97.9284 320.872 96.9323C321.866 95.9362 322.424 94.5852 322.424 93.1765C322.424 91.7678 321.866 90.4168 320.872 89.4207C319.879 88.4246 318.531 87.865 317.126 87.865Z" fill="#3F3D56"/>
<path d="M327.64 139.141C327.543 138.962 327.443 138.785 327.34 138.612C327.337 138.606 327.334 138.603 327.331 138.597C324.949 134.509 321.548 131.112 317.461 128.74C313.375 126.368 308.743 125.102 304.021 125.066C299.299 125.03 294.649 126.226 290.527 128.537C286.405 130.847 282.953 134.192 280.51 138.243C278.067 142.295 276.717 146.914 276.592 151.647C276.466 156.38 277.571 161.064 279.796 165.24C282.022 169.415 285.292 172.939 289.286 175.465C293.28 177.991 297.86 179.432 302.578 179.648C302.865 179.663 303.156 179.672 303.446 179.672C303.568 179.678 303.686 179.678 303.807 179.678C308.673 179.685 313.452 178.375 317.638 175.887C322.185 173.189 325.858 169.231 328.215 164.49C328.218 164.484 328.221 164.481 328.224 164.475C328.315 164.293 328.403 164.108 328.49 163.919C330.311 160.015 331.183 155.735 331.035 151.428C330.888 147.12 329.724 142.91 327.64 139.141ZM327.9 163.753C327.812 163.941 327.721 164.126 327.628 164.308C325.376 168.796 321.915 172.562 317.638 175.18C313.473 177.73 308.687 179.077 303.807 179.071C303.586 179.071 303.368 179.068 303.147 179.062C303.053 179.062 302.959 179.059 302.865 179.053C298.243 178.891 293.743 177.525 289.807 175.09C285.871 172.655 282.635 169.234 280.418 165.165C278.201 161.096 277.079 156.518 277.162 151.881C277.244 147.245 278.53 142.711 280.891 138.724C283.253 134.737 286.609 131.435 290.629 129.143C294.65 126.851 299.196 125.648 303.821 125.652C308.446 125.657 312.99 126.868 317.006 129.168C321.022 131.468 324.372 134.776 326.726 138.767C326.729 138.773 326.732 138.776 326.735 138.782C326.841 138.955 326.943 139.131 327.04 139.308C329.118 143.018 330.28 147.173 330.429 151.425C330.579 155.678 329.712 159.905 327.9 163.753Z" fill="#3F3D56"/>
<path d="M324.746 139.948C324.215 139.569 323.581 139.364 322.93 139.362H311.024C310.194 139.362 309.399 139.693 308.812 140.281C308.226 140.868 307.896 141.666 307.896 142.497C307.896 143.329 308.226 144.126 308.812 144.714C309.399 145.302 310.194 145.633 311.024 145.633H322.93C323.142 145.633 323.354 145.612 323.562 145.569C323.769 145.524 323.972 145.46 324.168 145.378C324.677 145.158 325.118 144.806 325.447 144.359C325.776 143.912 325.98 143.385 326.039 142.832C326.098 142.28 326.009 141.721 325.782 141.215C325.555 140.708 325.197 140.271 324.746 139.948Z" fill="#3F3D56"/>
<path d="M311.817 144.089C312.693 144.089 313.404 143.376 313.404 142.497C313.404 141.618 312.693 140.906 311.817 140.906C310.94 140.906 310.229 141.618 310.229 142.497C310.229 143.376 310.94 144.089 311.817 144.089Z" fill="#F1F1F1"/>
<path d="M316.976 144.089C317.853 144.089 318.564 143.376 318.564 142.497C318.564 141.618 317.853 140.906 316.976 140.906C316.099 140.906 315.389 141.618 315.389 142.497C315.389 143.376 316.099 144.089 316.976 144.089Z" fill="#F1F1F1"/>
<path d="M322.136 144.089C323.013 144.089 323.724 143.376 323.724 142.497C323.724 141.618 323.013 140.906 322.136 140.906C321.259 140.906 320.548 141.618 320.548 142.497C320.548 143.376 321.259 144.089 322.136 144.089Z" fill="#9732BC"/>
<path d="M381.93 90.0356C377.801 92.5182 370.445 95.6288 362.928 92.432L358.069 90.3655L367.807 79.4216C360.036 70.8318 355.738 59.6471 355.75 48.0507C355.761 36.4542 360.083 25.2784 367.871 16.7046C375.658 8.1307 386.353 2.77422 397.868 1.68066C409.382 0.587093 420.89 3.83493 430.145 10.7902C439.4 17.7455 445.737 27.909 447.92 39.297C450.104 50.6849 447.976 62.48 441.953 72.3798C435.929 82.2796 426.443 89.5737 415.344 92.8382C404.246 96.1028 392.333 95.1036 381.93 90.0356Z" fill="white"/>
<path d="M381.955 90.6255C377.988 92.9607 370.431 96.1881 362.726 92.9109L357.2 90.5609L367.11 79.423C360.944 72.469 356.968 63.8412 355.683 54.6262C354.398 45.4111 355.862 36.0209 359.889 27.6381C363.917 19.2553 370.328 12.2548 378.316 7.51825C386.304 2.78166 395.511 0.520811 404.778 1.02042C414.045 1.52004 422.957 4.75777 430.392 10.3259C437.828 15.894 443.453 23.5434 446.561 32.3109C449.669 41.0784 450.119 50.5718 447.856 59.5955C445.593 68.6193 440.717 76.7699 433.843 83.0208C426.939 89.3366 418.308 93.436 409.061 94.7913C399.813 96.1466 390.373 94.6957 381.955 90.6255ZM436.315 17.1247C432.259 12.6381 427.361 8.99667 421.9 6.40835C416.44 3.82003 410.525 2.33553 404.492 2.03964C398.46 1.74375 392.428 2.64227 386.742 4.68387C381.056 6.72548 375.827 9.87017 371.353 13.9384C366.879 18.0065 363.248 22.9185 360.668 28.3937C358.088 33.8689 356.609 39.8002 356.315 45.8486C356.022 51.897 356.919 57.9442 358.957 63.6448C360.995 69.3453 364.132 74.5876 368.191 79.0721L368.505 79.4189L358.939 90.1702L363.131 91.9531C370.572 95.1179 377.936 91.8303 381.663 89.5893L381.904 89.4443L382.157 89.5675C391.764 94.2479 402.697 95.429 413.078 92.9079C423.46 90.3868 432.642 84.3208 439.049 75.7513C445.455 67.1819 448.686 56.6435 448.188 45.9456C447.689 35.2477 443.491 25.0576 436.315 17.1247Z" fill="#9732BC"/>
<path opacity="0.1" d="M441.512 47.8078C441.511 37.0849 437.506 26.7509 430.286 18.8407C423.065 10.9306 413.152 6.01767 402.5 5.06948C403.746 4.95999 405.007 4.90076 406.282 4.90076C417.627 4.90762 428.506 9.4312 436.526 17.4771C444.546 25.523 449.051 36.4326 449.051 47.8078C449.051 59.183 444.546 70.0927 436.526 78.1385C428.506 86.1844 417.627 90.708 406.282 90.7149C405.009 90.7149 403.75 90.6549 402.505 90.5456C413.157 89.596 423.069 84.6826 430.288 76.7727C437.507 68.8628 441.511 58.5297 441.512 47.8078Z" fill="black"/>
<path d="M408.292 39.2516H377.713V42.0988H408.292V39.2516Z" fill="#9732BC"/>
<path d="M431.01 49.1008H377.713V51.948H431.01V49.1008Z" fill="#9732BC"/>
<path d="M430.958 58.9502H377.713V61.7974H430.958V58.9502Z" fill="#9732BC"/>
<path d="M198.258 247.206H0.518999C0.381352 247.206 0.249342 247.151 0.152011 247.054C0.0546797 246.956 0 246.824 0 246.686C0 246.548 0.0546797 246.415 0.152011 246.318C0.249342 246.22 0.381352 246.165 0.518999 246.165H198.258C198.395 246.165 198.527 246.22 198.625 246.318C198.722 246.415 198.777 246.548 198.777 246.686C198.777 246.824 198.722 246.956 198.625 247.054C198.527 247.151 198.395 247.206 198.258 247.206Z" fill="#CBCBCB"/>
<path d="M122.002 40.1003C121.573 38.1514 120.181 36.5366 118.578 35.354C115.935 33.4045 112.693 32.4462 109.418 32.6459C106.143 32.8456 103.041 34.1907 100.653 36.4469C99.3188 37.6285 98.3567 39.1744 97.8848 40.8955C97.6596 41.7558 97.6476 42.6582 97.8498 43.5241C98.0519 44.39 98.4621 45.1933 99.0447 45.864L99.2644 46.002C99.0652 45.1548 99.7215 44.3083 100.506 43.9346C101.321 43.6345 102.172 43.4431 103.038 43.3654C104.347 43.1174 105.587 42.5905 106.676 41.8204C107.764 41.0503 108.675 40.0549 109.347 38.9016C109.845 40.3211 110.64 41.6174 111.679 42.7031C112.718 43.7889 113.977 44.6389 115.371 45.1961C116.824 45.766 120.816 46.5496 122.2 45.8261C123.965 44.9033 122.43 42.0493 122.002 40.1003Z" fill="#2F2E41"/>
</g>
<defs>
<clipPath id="clip0_168_551">
<rect width="451" height="247" fill="white" transform="translate(0 0.974121)"/>
</clipPath>
</defs>
</svg>
