<svg width="466" height="286" viewBox="0 0 466 286" fill="none" xmlns="http://www.w3.org/2000/svg">
<g clip-path="url(#clip0_168_595)">
<rect width="125.374" height="125.598" transform="translate(0 12)" fill="#3F3D56"/>
<rect x="28.5" y="23.7988" width="67" height="81" rx="4.5" stroke="#D6D6E3"/>
<g clip-path="url(#clip1_168_595)">
<path d="M44.4302 80.8743C44.4302 80.8743 48.6536 83.9039 49.9105 83.9039L50.8083 83.5466L51.8399 83.6072L52.0798 84.336L53.6811 84.6186L53.1424 85.1547L54.9379 85.6014L56.0152 84.8866L56.3744 85.3333L57.6312 84.8866L57.9319 85.6014L59.4267 85.0653L60.4143 85.4227C60.4143 85.4227 60.5938 86.4948 61.4916 86.5841C62.3893 86.6734 63.6462 87.2988 63.6462 87.2988L66.4485 86.1059L66.7883 85.512L67.7759 85.78L70.3793 84.3506C70.3793 84.3506 70.3215 84.3585 69.6322 84.0865C68.9429 83.8146 68.8532 83.4572 68.8532 83.4572L68.3644 83.6072C68.3644 83.6072 67.5948 83.395 68.1342 82.488C68.6736 81.5811 68.2493 81.7072 68.2493 81.7072L67.4168 81.9384L66.9679 81.2237C66.9679 81.2237 66.0701 81.4918 65.8906 81.5811C65.711 81.6704 66.1599 81.1344 66.1599 81.1344L65.8008 80.9557L65.8906 80.509C65.8906 80.509 65.6212 80.3303 65.9803 79.973C66.3394 79.6156 65.711 79.2583 65.711 79.2583C65.711 79.2583 64.0679 79.7848 64.665 78.8962C65.2621 78.0075 64.7412 77.6505 64.7412 77.6505L60.7567 76.3994L60.3245 77.0248C60.3245 77.0248 58.9028 76.6413 59.3443 77.8158C59.3443 77.8158 58.3655 77.8958 58.7166 78.4431C58.7166 78.4431 57.5414 78.2956 57.8108 79.0003L56.8595 78.7371C56.8595 78.7371 56.1331 78.5212 56.7026 78.4431C57.2721 78.3649 56.4934 78.1415 56.4934 78.1415C56.4934 78.1415 56.7481 77.1588 56.0226 77.4491C55.297 77.7395 54.6838 78.1415 54.6838 78.1415L44.4302 80.8743Z" fill="#B3B3B3"/>
<path d="M44.6997 80.5169C44.6997 80.5169 48.9232 83.5465 50.18 83.5465L51.0778 83.1891L52.1094 83.2498L52.3493 83.9786L53.9506 84.2612L53.412 84.7972L55.2075 85.2439L56.2848 84.5292L56.6439 84.9759L57.9007 84.5292L58.2014 85.2439L59.6963 84.7079L60.6838 85.0653C60.6838 85.0653 60.8633 86.1373 61.7611 86.2267C62.6588 86.316 63.9157 86.9414 63.9157 86.9414L66.718 85.7485L67.0579 85.1546L68.0454 85.4226L70.6489 83.9932C70.6489 83.9932 70.5911 84.0011 69.9018 83.7291C69.2125 83.4572 69.1227 83.0998 69.1227 83.0998L68.634 83.2498C68.634 83.2498 67.8643 83.0376 68.4037 82.1306C68.9431 81.2237 68.5188 81.3498 68.5188 81.3498L67.6863 81.581L67.2374 80.8663C67.2374 80.8663 66.3397 81.1343 66.1601 81.2237C65.9805 81.313 66.4294 80.777 66.4294 80.777L66.0703 80.5983L66.1601 80.1516C66.1601 80.1516 65.8908 79.9729 66.2499 79.6156C66.609 79.2582 65.9805 78.9008 65.9805 78.9008C65.9805 78.9008 64.3374 79.4274 64.9346 78.5387C65.5317 77.6501 65.0107 77.293 65.0107 77.293L61.0262 76.042L60.594 76.6674C60.594 76.6674 59.1723 76.2839 59.6138 77.4584C59.6138 77.4584 58.6351 77.5384 58.9861 78.0856C58.9861 78.0856 57.811 77.9381 58.0803 78.6428L57.1291 78.3797C57.1291 78.3797 56.4027 78.1638 56.9721 78.0856C57.5416 78.0075 56.7629 77.7841 56.7629 77.7841C56.7629 77.7841 57.0177 76.8014 56.2921 77.0917C55.5666 77.3821 54.9534 77.7841 54.9534 77.7841L44.6997 80.5169Z" fill="#D6D6E3"/>
<path d="M74.8684 70.4137C74.8684 70.4137 78.2799 69.6097 77.9208 66.3041L78.5492 66.4828V65.2366C78.5492 65.2366 79.7988 67.2868 79.8024 68.0909C79.8061 68.895 80.3447 74.702 73.8809 73.6299L74.8684 70.4137Z" fill="#9732BC"/>
<path d="M56.4643 42.7185L55.6114 42.7631H54.254C54.254 42.7631 53.2848 42.5398 52.9444 42.7185L53.4119 42.9865C53.4119 42.9865 52.6039 43.0758 52.3346 43.4332H53.0859C53.0859 43.4332 52.0653 43.7012 51.8857 44.4159C51.7062 45.1306 49.9107 46.7387 49.9107 46.7387C49.9107 46.7387 46.2299 49.6869 50.7187 53.7072C50.7187 53.7072 51.2573 55.4046 51.0778 55.6727C50.8982 55.9407 53.3221 56.298 53.5915 54.4219C53.8608 52.5458 54.3995 48.6148 54.3995 48.1682C54.3995 47.7215 55.5665 44.9519 55.5665 44.9519" fill="#9732BC"/>
<path d="M67.417 42.7185L68.2699 42.7631H69.6273C69.6273 42.7631 70.5965 42.5398 70.9369 42.7185L70.4694 42.9865C70.4694 42.9865 71.2773 43.0758 71.5467 43.4332H70.7953C70.7953 43.4332 71.816 43.7012 71.9956 44.4159C72.1751 45.1306 73.9706 46.7387 73.9706 46.7387C73.9706 46.7387 77.6514 49.6869 73.1626 53.7072C73.1626 53.7072 72.624 55.4046 72.8035 55.6727C72.9831 55.9407 70.5591 56.298 70.2898 54.4219C70.0205 52.5458 69.4818 48.6148 69.4818 48.1682C69.4818 47.7215 68.3147 44.9519 68.3147 44.9519" fill="#9732BC"/>
<path d="M74.6439 73.5851C74.4643 74.4785 73.6563 75.1039 73.6563 75.1039C73.2972 77.3374 71.771 76.3546 71.771 76.3546C71.6813 76.712 69.9755 76.5333 69.9755 76.5333L69.7062 76.1804V77.248C69.7062 78.0521 68.6289 77.7841 68.6289 77.7841C68.3596 78.5881 66.7176 78.1414 66.7176 78.1414C66.064 78.6775 64.8583 78.1414 64.8583 78.1414C63.2424 78.0521 63.0628 76.712 63.0628 76.712L63.3321 74.3892L61.717 74.4231C59.9215 75.9749 58.0803 74.583 58.0803 74.583C58.0803 74.583 57.766 76.176 57.5865 76.98C57.4069 77.7841 54.9578 77.5589 54.9578 77.5589C54.3941 78.1378 53.2099 77.4589 53.2099 77.4589C52.244 77.8475 51.6613 76.98 51.6613 76.98C50.3147 75.7293 52.7952 73.7441 52.7952 73.7441V69.111C51.7744 64.9933 53.2324 57.3986 53.2324 57.3986C53.3527 57.0466 53.5735 56.7866 53.824 56.5963C54.4102 56.147 55.159 56.0746 55.159 56.0746C55.159 56.0746 67.372 55.0025 69.1676 55.1812C69.5069 55.2152 69.779 55.4367 69.9962 55.7744C70.9326 57.2244 70.8733 60.8096 70.8733 60.8096C72.6688 61.6137 73.1177 65.5446 73.1177 65.5446C77.2474 66.974 74.8234 72.6917 74.6439 73.5851Z" fill="#9732BC"/>
<path d="M67.731 42.3165C67.731 42.3165 61.3569 37.4922 55.6113 42.7632C55.6113 42.7632 51.6163 52.6352 53.1424 54.958C54.6686 57.2808 59.1778 59.2536 59.1778 59.2536C59.1778 59.2536 62.0834 59.8863 64.795 59.2536C67.5065 58.6209 70.4691 54.3326 70.4691 54.3326C70.4691 54.3326 70.5589 43.0759 67.731 42.3165Z" fill="#9732BC"/>
<path d="M63.8806 45.9706C64.2817 46.8286 65.074 47.4827 65.9924 47.7244C66.1602 47.7685 66.2317 47.5101 66.064 47.4659C65.2072 47.2405 64.4865 46.6341 64.1132 45.8353C64.0401 45.6791 63.8079 45.815 63.8806 45.9706Z" fill="#090814"/>
<path d="M59.1147 45.9394C58.9315 46.4071 58.6378 46.8278 58.2668 47.1673C58.0854 47.3333 57.8844 47.482 57.6675 47.5993C57.4379 47.7234 57.144 47.8252 56.8969 47.6912C56.7447 47.6086 56.6086 47.84 56.761 47.9226C57.3178 48.2246 57.9643 47.7831 58.3787 47.4266C58.8231 47.0441 59.1614 46.5545 59.3744 46.0106C59.4373 45.8498 59.177 45.7802 59.1147 45.9394Z" fill="#090814"/>
<path d="M66.0701 51.6525C66.9625 51.6525 67.686 50.9325 67.686 50.0444C67.686 49.1563 66.9625 48.4363 66.0701 48.4363C65.1776 48.4363 64.4541 49.1563 64.4541 50.0444C64.4541 50.9325 65.1776 51.6525 66.0701 51.6525Z" fill="white"/>
<path d="M65.8906 51.2058C66.5848 51.2058 67.1475 50.6459 67.1475 49.9551C67.1475 49.2643 66.5848 48.7043 65.8906 48.7043C65.1965 48.7043 64.6338 49.2643 64.6338 49.9551C64.6338 50.6459 65.1965 51.2058 65.8906 51.2058Z" fill="#090814"/>
<path d="M66.2049 49.5529C66.3536 49.5529 66.4742 49.4329 66.4742 49.2849C66.4742 49.1368 66.3536 49.0168 66.2049 49.0168C66.0561 49.0168 65.9355 49.1368 65.9355 49.2849C65.9355 49.4329 66.0561 49.5529 66.2049 49.5529Z" fill="white"/>
<path d="M58.0803 51.7418C58.9728 51.7418 59.6963 51.0219 59.6963 50.1337C59.6963 49.2456 58.9728 48.5256 58.0803 48.5256C57.1878 48.5256 56.4644 49.2456 56.4644 50.1337C56.4644 51.0219 57.1878 51.7418 58.0803 51.7418Z" fill="white"/>
<path d="M57.9004 51.2952C58.5946 51.2952 59.1573 50.7352 59.1573 50.0445C59.1573 49.3537 58.5946 48.7937 57.9004 48.7937C57.2063 48.7937 56.6436 49.3537 56.6436 50.0445C56.6436 50.7352 57.2063 51.2952 57.9004 51.2952Z" fill="#090814"/>
<path d="M58.2146 49.6422C58.3634 49.6422 58.484 49.5222 58.484 49.3742C58.484 49.2262 58.3634 49.1062 58.2146 49.1062C58.0659 49.1062 57.9453 49.2262 57.9453 49.3742C57.9453 49.5222 58.0659 49.6422 58.2146 49.6422Z" fill="white"/>
<path d="M61.7162 56.0748C61.7162 56.0748 58.8434 55.1814 59.5616 53.4839C60.2798 51.7865 62.5242 52.4119 62.5242 52.4119C62.5242 52.4119 64.4543 52.7246 63.8809 54.187C63.4668 55.2261 62.7935 55.7174 61.7162 56.0748Z" fill="#090814"/>
<path d="M58.0903 58.8112L58.0698 58.6337C58.0785 58.6327 58.9457 58.5229 59.7191 57.6678C60.4178 56.8952 61.3309 56.8174 61.6268 56.8138L61.6262 56.0749L61.8058 56.0747L61.8066 56.9994L61.7112 56.9937C61.7002 56.993 60.6204 56.9384 59.8525 57.7873C59.0312 58.6955 58.1282 58.8069 58.0903 58.8112Z" fill="#090814"/>
<path d="M65.8642 58.9065C65.799 58.8863 64.2618 58.4039 63.9076 57.7161C63.6471 57.21 62.2343 57.0232 61.7119 56.9938L61.7221 56.8154C61.8029 56.82 63.7071 56.9347 64.0674 57.6346C64.3876 58.2564 65.9023 58.7312 65.9175 58.7359L65.8642 58.9065Z" fill="#090814"/>
<path d="M58.1612 74.6217L57.9995 74.5439C59.7531 70.9372 58.0192 67.6682 58.0014 67.6357L58.1592 67.5505C58.1775 67.584 59.956 70.9303 58.1612 74.6217Z" fill="#090814"/>
<path d="M63.2427 74.3946C63.1088 72.1302 63.9988 68.1118 64.0077 68.0715L64.1831 68.1103C64.1741 68.1504 63.2895 72.1446 63.4219 74.3841L63.2427 74.3946Z" fill="#090814"/>
<path d="M69.5831 76.2651L68.8649 75.0144C68.1327 73.7393 69.9499 69.572 70.0277 69.3953L70.1922 69.4668C70.1875 69.4775 69.718 70.5496 69.3424 71.7594C68.851 73.3416 68.7399 74.4366 69.0208 74.9257L69.739 76.1765L69.5831 76.2651Z" fill="#090814"/>
<path d="M71.8592 76.3722L71.6831 76.3372C71.9013 75.2512 71.7682 74.412 71.7668 74.4037L71.944 74.3748C71.9499 74.4101 72.0842 75.2524 71.8592 76.3722Z" fill="#090814"/>
<path d="M69.8888 76.5564C69.6607 75.6942 70.0088 74.4196 70.0237 74.3657L70.1968 74.4132C70.1932 74.4259 69.8468 75.6956 70.0624 76.5108L69.8888 76.5564Z" fill="#090814"/>
<path d="M64.9456 78.1623L64.771 78.121C64.9896 77.2069 64.9043 75.7939 64.9034 75.7797L65.0826 75.7686C65.0863 75.8274 65.1706 77.2221 64.9456 78.1623Z" fill="#090814"/>
<path d="M66.8065 78.1579L66.6299 78.1251C66.736 77.5603 66.6993 76.0594 66.6989 76.0443L66.8784 76.0398C66.88 76.1022 66.916 77.5747 66.8065 78.1579Z" fill="#090814"/>
<path d="M68.7183 77.7894L68.5391 77.7789C68.5824 77.0452 68.321 76.2569 68.3184 76.2491L68.4886 76.1924C68.4999 76.2259 68.7637 77.0217 68.7183 77.7894Z" fill="#090814"/>
<path d="M54.8689 77.5665C54.7976 76.743 55.4922 75.4722 55.5217 75.4185L55.6792 75.5044C55.6721 75.5171 54.9811 76.7816 55.0477 77.5512L54.8689 77.5665Z" fill="#090814"/>
<path d="M53.1211 77.4719C53.0055 76.723 53.6864 75.4714 53.7154 75.4185L53.8731 75.5041C53.8662 75.5165 53.1922 76.7555 53.2986 77.4448L53.1211 77.4719Z" fill="#090814"/>
<path d="M51.9302 77.3734C51.7273 77.2741 51.7296 76.9277 51.9373 76.2832C52.0776 75.8479 52.2653 75.4291 52.2671 75.425L52.4311 75.498C52.0961 76.2429 51.8405 77.1303 52.0095 77.2131L51.9302 77.3734Z" fill="#090814"/>
<path d="M45.333 77.1812C45.333 77.1812 46.1447 78.0075 47.3992 77.9629C47.3992 77.9629 46.8583 79.0796 44.6139 79.3476C44.6139 79.3476 43.6263 78.8116 42.9979 78.8116C42.3695 78.8116 41.9224 78.0075 42.0113 77.9629C42.1001 77.9182 43.357 78.0969 43.357 78.0969L45.333 77.1812Z" fill="#B3B3B3"/>
<path d="M45.333 77.0024C45.333 77.0024 46.1447 77.8288 47.3992 77.7842C47.3992 77.7842 46.8583 78.9009 44.6139 79.1689C44.6139 79.1689 43.6263 78.6329 42.9979 78.6329C42.3695 78.6329 41.9224 77.8288 42.0113 77.7842C42.1001 77.7395 43.357 77.9182 43.357 77.9182L45.333 77.0024Z" fill="#D6D6E3"/>
<path d="M49.9106 80.1518L55.2768 78.3799L61.1326 80.4198L55.7461 82.6533L49.9106 80.1518Z" fill="#B3B3B3"/>
<path d="M60.2285 78.0857L60.5424 77.7842L64.5441 79.1689L64.3646 79.437L60.2285 78.0857Z" fill="#B3B3B3"/>
<path d="M58.479 78.6107L58.878 78.3799L65.5115 80.5166V80.7513L58.479 78.6107Z" fill="#B3B3B3"/>
<path d="M61.5815 80.9558L61.8763 80.7512L67.1476 82.4745L66.7951 82.7554L61.5815 80.9558Z" fill="#B3B3B3"/>
<path d="M60.0454 81.7532L60.2285 81.4917L65.5119 83.3539L65.2624 83.6358L60.0454 81.7532Z" fill="#B3B3B3"/>
<path d="M58.7983 82.296L58.8781 82.0527L64.0951 83.9788L63.8258 84.0827L58.7983 82.296Z" fill="#B3B3B3"/>
<path d="M58.0801 82.9635L58.4791 82.6531L61.1324 83.8224L60.9868 84.0825L58.0801 82.9635Z" fill="#B3B3B3"/>
<path d="M48.9229 80.8664L49.1645 80.7512L53.9247 82.5639L53.6632 82.6532L48.9229 80.8664Z" fill="#B3B3B3"/>
<path d="M47.8457 81.1345L48.3844 80.8665L50.9879 82.2065L50.7185 82.3852L47.8457 81.1345Z" fill="#B3B3B3"/>
<path d="M69.0493 78.4989L69.2125 79.6157L68.9033 80.3798L69.7145 80.7442L70.3796 81.6292V82.1107L72.0404 82.5141C72.0404 82.5141 72.9831 83.8146 73.6115 83.636C74.2399 83.4573 79.1727 79.9229 79.1727 79.9229L70.0445 78.1416C70.0445 78.1416 68.9759 77.9182 69.0493 78.4989Z" fill="#B3B3B3"/>
<path d="M68.7798 78.1415L68.943 79.2583L68.6338 80.0224L69.4449 80.3868L70.1101 81.2717V81.7533L71.7709 82.1567C71.7709 82.1567 72.7135 83.4572 73.342 83.2785C73.9704 83.0999 78.9031 79.5655 78.9031 79.5655L69.775 77.7842C69.775 77.7842 68.7064 77.5608 68.7798 78.1415Z" fill="#D6D6E3"/>
<path d="M69.5918 79.5656L69.9015 79.2417L74.2474 80.5166L74.0905 80.7513L69.5918 79.5656Z" fill="#B3B3B3"/>
<path d="M70.6489 80.9075L70.7691 80.5188L72.8933 81.3132L72.783 81.7023L70.6489 80.9075Z" fill="#B3B3B3"/>
<path d="M79.6352 75.4866C79.6352 75.4866 78.7147 76.7569 77.2853 76.1315C77.2853 76.1315 76.7636 76.4889 76.5791 76.5782C76.3946 76.6675 75.1929 76.7122 75.1929 76.7122L76.893 77.3152L77.9208 77.9183L80.3447 77.5609C80.3447 77.5609 80.8834 77.1142 81.422 77.1142C81.9607 77.1142 82.4379 76.1315 82.4379 76.1315C82.4379 76.1315 80.8912 76.0422 80.8424 75.8188C80.7936 75.5955 80.0928 76.0924 79.6352 75.4866Z" fill="#B3B3B3"/>
<path d="M79.4298 83.4249C79.5365 83.9932 81.8361 82.9174 81.8361 82.9174L80.8684 82.4099L80.4343 82.2958H79.796C79.796 82.2958 79.2574 81.8361 78.7236 82.1106C78.7236 82.1106 79.3231 82.8566 79.4298 83.4249Z" fill="#B3B3B3"/>
<path d="M79.8144 75.1292C79.8144 75.1292 78.8939 76.3995 77.4645 75.7741C77.4645 75.7741 76.9428 76.1314 76.7583 76.2208C76.5738 76.3101 75.3721 76.3548 75.3721 76.3548L77.0722 76.9578L78.1 77.5609L80.5239 77.2035C80.5239 77.2035 81.0626 76.7568 81.6012 76.7568C82.1399 76.7568 82.6171 75.7741 82.6171 75.7741C82.6171 75.7741 81.0704 75.6847 81.0216 75.4614C80.9728 75.238 80.272 75.735 79.8144 75.1292Z" fill="#D6D6E3"/>
<path d="M79.6095 83.0675C79.7162 83.6358 82.0158 82.56 82.0158 82.56L81.048 82.0525L80.614 81.9384H79.9757C79.9757 81.9384 79.4371 81.4787 78.9033 81.7532C78.9033 81.7532 79.5028 82.4992 79.6095 83.0675Z" fill="#D6D6E3"/>
<path d="M50.1494 80.206C50.1494 80.206 54.1964 79.7614 54.9335 80.0507L55.1921 82.3677L50.1494 80.206Z" fill="white"/>
<path d="M56.8378 80.608C57.2345 80.608 57.556 80.468 57.556 80.2954C57.556 80.1227 57.2345 79.9827 56.8378 79.9827C56.4412 79.9827 56.1196 80.1227 56.1196 80.2954C56.1196 80.468 56.4412 80.608 56.8378 80.608Z" fill="white"/>
</g>
<rect x="39.5" y="109.799" width="45" height="16" rx="4.5" stroke="#D6D6E3"/>
<path d="M48.2192 122.299C47.4306 122.299 46.8196 122.099 46.3862 121.701C45.9529 121.302 45.7362 120.717 45.7362 119.946V115.552C45.7362 114.78 45.9529 114.195 46.3862 113.797C46.8196 113.398 47.4306 113.199 48.2192 113.199H49.9612V114.057H48.2192C47.8206 114.057 47.4956 114.174 47.2442 114.408C47.0016 114.633 46.8802 114.936 46.8802 115.318V120.18C46.8802 120.561 47.0016 120.869 47.2442 121.103C47.4956 121.328 47.8206 121.441 48.2192 121.441H49.9612V122.299H48.2192ZM51.1663 122.299V113.199H52.3103V117.047H54.8973V113.199H56.0413V122.299H54.8973V117.905H52.3103V122.299H51.1663ZM60.0386 122.39C59.2326 122.39 58.6172 122.186 58.1926 121.779C57.7679 121.363 57.5556 120.786 57.5556 120.05V115.448C57.5556 114.711 57.7679 114.139 58.1926 113.732C58.6172 113.316 59.2326 113.108 60.0386 113.108C60.8532 113.108 61.4729 113.316 61.8976 113.732C62.3222 114.139 62.5346 114.711 62.5346 115.448V120.05C62.5346 120.786 62.3222 121.363 61.8976 121.779C61.4729 122.186 60.8532 122.39 60.0386 122.39ZM60.0386 121.532C60.4199 121.532 60.7406 121.423 61.0006 121.207C61.2606 120.981 61.3906 120.669 61.3906 120.271V115.227C61.3906 114.828 61.2606 114.52 61.0006 114.304C60.7406 114.078 60.4199 113.966 60.0386 113.966C59.6572 113.966 59.3366 114.078 59.0766 114.304C58.8252 114.52 58.6996 114.828 58.6996 115.227V120.271C58.6996 120.669 58.8252 120.981 59.0766 121.207C59.3366 121.423 59.6572 121.532 60.0386 121.532ZM66.1323 122.39C65.3263 122.39 64.711 122.186 64.2863 121.779C63.8617 121.363 63.6493 120.786 63.6493 120.05V115.448C63.6493 114.711 63.8617 114.139 64.2863 113.732C64.711 113.316 65.3263 113.108 66.1323 113.108C66.947 113.108 67.5667 113.316 67.9913 113.732C68.416 114.139 68.6283 114.711 68.6283 115.448V120.05C68.6283 120.786 68.416 121.363 67.9913 121.779C67.5667 122.186 66.947 122.39 66.1323 122.39ZM66.1323 121.532C66.5137 121.532 66.8343 121.423 67.0943 121.207C67.3543 120.981 67.4843 120.669 67.4843 120.271V115.227C67.4843 114.828 67.3543 114.52 67.0943 114.304C66.8343 114.078 66.5137 113.966 66.1323 113.966C65.751 113.966 65.4303 114.078 65.1703 114.304C64.919 114.52 64.7933 114.828 64.7933 115.227V120.271C64.7933 120.669 64.919 120.981 65.1703 121.207C65.4303 121.423 65.751 121.532 66.1323 121.532ZM69.9771 121.441H71.3941C71.8881 121.441 72.2434 121.293 72.4601 120.999C72.6854 120.704 72.7981 120.34 72.7981 119.907C72.7981 119.569 72.7331 119.278 72.6031 119.036C72.4817 118.784 72.3301 118.576 72.1481 118.412C71.9661 118.247 71.7191 118.056 71.4071 117.84C71.0777 117.614 70.8091 117.411 70.6011 117.229C70.4017 117.038 70.2327 116.8 70.0941 116.514C69.9554 116.228 69.8861 115.885 69.8861 115.487C69.8861 114.793 70.0941 114.239 70.5101 113.823C70.9261 113.407 71.5024 113.199 72.2391 113.199H73.2921V114.057H72.2911C71.8751 114.057 71.5587 114.191 71.3421 114.46C71.1254 114.728 71.0171 115.04 71.0171 115.396C71.0171 115.742 71.1167 116.028 71.3161 116.254C71.5154 116.479 71.8187 116.735 72.2261 117.021C72.5987 117.289 72.8977 117.532 73.1231 117.749C73.3484 117.957 73.5391 118.234 73.6951 118.581C73.8597 118.927 73.9421 119.343 73.9421 119.829C73.9421 120.643 73.7081 121.259 73.2401 121.675C72.7807 122.091 72.1481 122.299 71.3421 122.299H69.9771V121.441ZM75.2112 122.299V113.199H79.1762V114.083H76.3552V116.995H78.6432V117.879H76.3552V121.415H79.3062V122.299H75.2112Z" fill="#D6D6E3"/>
<rect width="125.374" height="125.598" transform="translate(169.935 12.2754)" fill="#3F3D56"/>
<rect x="198.435" y="24.0742" width="67" height="81" rx="4.5" stroke="#D6D6E3"/>
<g clip-path="url(#clip2_168_595)">
<path d="M230.404 83.2601C240.102 83.2601 247.963 75.2716 247.963 65.4172C247.963 55.5628 240.102 47.5742 230.404 47.5742C220.707 47.5742 212.846 55.5628 212.846 65.4172C212.846 75.2716 220.707 83.2601 230.404 83.2601Z" fill="#E6E6E6"/>
<path d="M246.514 53.2603C246.471 53.3607 246.426 53.4599 246.379 53.5581C242.557 53.714 236.513 53.8999 232.407 53.7166C232.382 53.6674 232.358 53.6179 232.334 53.5681C232.076 53.0297 232.499 52.41 233.084 52.4763L233.098 52.4779C233.098 52.4779 233.865 50.1382 235.912 50.7881C235.912 50.7881 240.517 43.4609 244.994 51.2197C244.994 51.2197 245.019 51.215 245.067 51.2107C246.151 51.1132 246.948 52.2459 246.514 53.2603Z" fill="white"/>
<path d="M249.431 64.3516H247.154V84.3868H249.431V64.3516Z" fill="#2F2E43"/>
<path d="M255.304 84.745C255.162 83.9239 254.988 83.0995 254.64 82.3449C254.291 81.5903 253.752 80.903 253.026 80.5155C251.887 79.9079 250.359 80.1829 249.494 81.1512C248.63 82.1194 248.509 83.6914 249.215 84.7843" fill="#E6E6E6"/>
<path d="M249.446 84.8444C249.328 83.3357 248.519 81.8731 247.249 81.0831C245.979 80.293 244.266 80.2448 243.01 81.0578C241.754 81.8708 241.069 83.546 241.49 84.9977" fill="#E6E6E6"/>
<path d="M258.935 84.8074C258.677 83.8044 257.81 82.9916 256.805 82.8104C256.313 82.7215 255.752 82.7972 255.41 83.1673C254.99 83.6212 255.035 84.3291 255.108 84.9478" fill="#E6E6E6"/>
<path d="M230.404 70.7152C234.674 70.7152 238.135 67.1981 238.135 62.8594C238.135 58.5208 234.674 55.0037 230.404 55.0037C226.135 55.0037 222.674 58.5208 222.674 62.8594C222.674 67.1981 226.135 70.7152 230.404 70.7152Z" fill="#FF6363"/>
<path d="M258.925 84.8275C258.925 85.1638 235.401 85.5741 224.561 85.5741C213.722 85.5741 204.935 85.3015 204.935 84.9652C204.935 84.6288 213.722 84.3562 224.561 84.3562C235.401 84.3562 258.925 84.4912 258.925 84.8275Z" fill="#E6E6E6"/>
<path d="M209.099 78.6004L209.609 80.6416L214.624 81.5246V77.633L209.099 77.3835V78.6004Z" fill="#2F2E43"/>
<path d="M239.813 76.3787H214.224V82.4684H239.813V76.3787Z" fill="#2F2E43"/>
<path d="M215.482 81.6768C215.482 83.3921 214.833 84.7826 212.636 84.7826C210.738 84.7826 210.089 83.3921 210.089 81.6768C210.089 79.9615 211.064 78.571 212.636 78.571C214.208 78.571 215.482 79.9615 215.482 81.6768Z" fill="#2F2E43"/>
<path d="M211.887 83.93C212.548 83.93 213.085 82.8531 213.085 81.5246C213.085 80.1961 212.548 79.1191 211.887 79.1191C211.225 79.1191 210.688 80.1961 210.688 81.5246C210.688 82.8531 211.225 83.93 211.887 83.93Z" fill="white"/>
<path d="M211.887 82.1639C212.35 82.1639 212.726 81.7822 212.726 81.3113C212.726 80.8404 212.35 80.4587 211.887 80.4587C211.423 80.4587 211.048 80.8404 211.048 81.3113C211.048 81.7822 211.423 82.1639 211.887 82.1639Z" fill="#2F2E43"/>
<path d="M239.453 84.9653C241.34 84.9653 242.869 83.2203 242.869 81.0678C242.869 78.9154 241.34 77.1704 239.453 77.1704C237.567 77.1704 236.038 78.9154 236.038 81.0678C236.038 83.2203 237.567 84.9653 239.453 84.9653Z" fill="#2F2E43"/>
<path d="M223.273 84.3562C224.729 84.3562 225.91 83.0475 225.91 81.4331C225.91 79.8187 224.729 78.51 223.273 78.51C221.817 78.51 220.636 79.8187 220.636 81.4331C220.636 83.0475 221.817 84.3562 223.273 84.3562Z" fill="#2F2E43"/>
<path d="M228.067 85.5742C229.954 85.5742 231.483 83.8292 231.483 81.6767C231.483 79.5242 229.954 77.7793 228.067 77.7793C226.181 77.7793 224.651 79.5242 224.651 81.6767C224.651 83.8292 226.181 85.5742 228.067 85.5742Z" fill="#2F2E43"/>
<path d="M227.438 84.2954C228.613 84.2954 229.565 83.014 229.565 81.4332C229.565 79.8525 228.613 78.571 227.438 78.571C226.263 78.571 225.311 79.8525 225.311 81.4332C225.311 83.014 226.263 84.2954 227.438 84.2954Z" fill="white"/>
<path d="M227.408 82.2247C228.037 82.2247 228.546 81.7067 228.546 81.0677C228.546 80.4287 228.037 79.9106 227.408 79.9106C226.779 79.9106 226.269 80.4287 226.269 81.0677C226.269 81.7067 226.779 82.2247 227.408 82.2247Z" fill="#2F2E43"/>
<path d="M207.841 79.7175V75.0831C207.841 74.6762 208.166 74.3464 208.566 74.3464H209.534C209.534 74.3464 210.328 69.4972 211.826 68.8273C213.325 68.1575 226.748 65.1126 234.12 68.0966L236.577 72.6639C236.577 72.6639 242.15 72.6639 242.749 73.9427C242.749 73.9427 245.386 73.2729 245.626 76.1959L244.966 79.6062L244.727 80.8241L231.722 80.3979L229.325 80.0934C229.325 80.0934 228.966 77.2921 227.228 77.2921C225.49 77.2921 224.771 77.7184 224.771 77.7184C224.771 77.7184 223.452 79.9107 223.872 82.103H214.107C214.107 82.103 213.684 78.6927 211.707 78.6318C210.806 78.6041 209.909 78.2664 209.609 80.6414L208.536 80.512C208.14 80.4643 207.841 80.1229 207.841 79.7175Z" fill="#9732BC"/>
<path d="M236.118 72.5727H224.394C224.007 72.5727 223.682 72.2913 223.62 71.9037L223.179 69.1308C223.147 68.9316 223.197 68.7342 223.318 68.5749C223.44 68.4158 223.616 68.3182 223.813 68.3001C230.185 67.7159 232.786 68.139 233.608 68.3479C234.113 68.4762 234.537 68.8432 234.743 69.3297L236.118 72.5727Z" fill="white"/>
<path d="M219.186 73.1296C219.092 73.1296 219 73.1277 218.91 73.1235C218.759 73.1164 218.619 73.0442 218.524 72.9252C218.43 72.807 218.39 72.653 218.414 72.5029L218.889 69.5886C218.927 69.3574 219.113 69.1755 219.342 69.1463L221.624 68.8544C221.894 68.8198 222.142 68.9973 222.202 69.2672L222.816 72.0498C222.847 72.1892 222.822 72.3323 222.747 72.4528C222.672 72.5731 222.555 72.6564 222.418 72.6874C221.662 72.8584 220.288 73.1296 219.186 73.1296Z" fill="white"/>
<path d="M212.61 73.6858C212.467 73.6858 212.332 73.6198 212.243 73.5052C212.147 73.3821 212.117 73.2191 212.163 73.0691C212.531 71.8714 213.208 69.8348 213.612 69.6521C214.015 69.4702 216.092 69.3082 217.294 69.2278C217.437 69.2184 217.575 69.275 217.672 69.3836C217.768 69.4923 217.81 69.6375 217.785 69.782L217.248 72.994C217.211 73.211 217.035 73.3732 216.819 73.3885L212.643 73.6846C212.632 73.6854 212.621 73.6858 212.61 73.6858Z" fill="white"/>
<path d="M216.741 81.0678V75.0292L217.631 73.6992H223.285L222.494 75.2826L222.676 81.0678H216.741Z" stroke="#2F2E43" stroke-miterlimit="10" stroke-linecap="round"/>
<path d="M214.927 81.0679H216.741" stroke="#2F2E43" stroke-miterlimit="10" stroke-linecap="round"/>
<path d="M211.063 78.6003C211.063 78.6003 211.407 74.491 212.007 74.2778L217.04 73.8818" stroke="#2F2E43" stroke-miterlimit="10" stroke-linecap="round"/>
<path d="M212.306 75.7087H213.107" stroke="#2F2E43" stroke-miterlimit="10" stroke-linecap="round"/>
<path d="M218.359 74.9851H217.327V75.4653H218.359V74.9851Z" stroke="#2F2E43" stroke-miterlimit="10" stroke-linecap="round"/>
<path d="M223.285 73.6993L233.85 73.3035C233.85 73.3035 235.133 74.0027 235.42 76.2412L242.54 76.531C242.54 76.531 243.199 74.8868 242.749 73.9429" stroke="#2F2E43" stroke-miterlimit="10" stroke-linecap="round"/>
<path d="M233.341 77.7793C234.102 77.7793 234.719 77.1522 234.719 76.3787C234.719 75.6051 234.102 74.978 233.341 74.978C232.58 74.978 231.962 75.6051 231.962 76.3787C231.962 77.1522 232.58 77.7793 233.341 77.7793Z" fill="#2F2E43"/>
<path d="M233.341 77.414C233.903 77.414 234.359 76.9505 234.359 76.3788C234.359 75.807 233.903 75.3435 233.341 75.3435C232.778 75.3435 232.322 75.807 232.322 76.3788C232.322 76.9505 232.778 77.414 233.341 77.414Z" fill="white"/>
<path d="M244.697 77.9925C245.293 77.9925 245.776 77.3927 245.776 76.6527C245.776 75.9128 245.293 75.313 244.697 75.313C244.101 75.313 243.618 75.9128 243.618 76.6527C243.618 77.3927 244.101 77.9925 244.697 77.9925Z" fill="#2F2E43"/>
<path d="M244.607 77.7795C245.004 77.7795 245.326 77.2887 245.326 76.6833C245.326 76.0779 245.004 75.5872 244.607 75.5872C244.21 75.5872 243.888 76.0779 243.888 76.6833C243.888 77.2887 244.21 77.7795 244.607 77.7795Z" fill="white"/>
<path d="M233.131 79.0277C233.33 79.0277 233.491 78.7959 233.491 78.5101C233.491 78.2242 233.33 77.9924 233.131 77.9924C232.932 77.9924 232.771 78.2242 232.771 78.5101C232.771 78.7959 232.932 79.0277 233.131 79.0277Z" fill="white"/>
<path d="M244.487 79.4844C244.653 79.4844 244.787 79.2663 244.787 78.9972C244.787 78.7281 244.653 78.51 244.487 78.51C244.322 78.51 244.188 78.7281 244.188 78.9972C244.188 79.2663 244.322 79.4844 244.487 79.4844Z" fill="white"/>
<path d="M243.409 79.0582H234.719L234.899 77.8139C234.899 77.1558 235.424 76.6223 236.072 76.6223H242.188C242.862 76.6223 243.409 77.1777 243.409 77.8627V79.0582Z" fill="#2F2E43"/>
<path d="M247.481 66.8087C247.481 66.8087 244.218 66.3587 245.326 62.2798H245.776C245.776 62.2798 245.237 64.3515 247.334 65.3868L247.481 66.8087Z" fill="#2F2E43"/>
<path d="M249.252 68.188C249.252 68.188 251.349 65.265 251.349 64.1079H250.77C250.77 64.1079 250.202 65.8739 248.918 66.148L249.252 68.188Z" fill="#2F2E43"/>
<path d="M243.802 63.8802C243.689 64.772 242.778 65.4295 241.894 65.3847C241.011 65.3398 240.223 64.6982 239.839 63.8882C239.454 63.0782 239.431 62.1297 239.609 61.2488C238.719 60.0327 238.204 58.5384 238.152 57.0243C238.123 56.1939 238.25 55.3114 238.767 54.6673C239.181 54.1511 239.83 53.8379 240.485 53.838C241.141 53.8382 241.79 54.1517 242.204 54.6682L242.091 54.6546C241.99 53.8212 241.888 52.9795 241.97 52.1439C242.053 51.3084 242.337 50.4675 242.912 49.8647C243.504 49.2442 244.34 48.9344 245.161 48.7086C246.355 48.3804 247.621 48.1887 248.824 48.4771C250.027 48.7656 251.157 49.613 251.518 50.8146C252.467 50.7796 253.451 50.887 254.279 51.3602C255.107 51.8333 255.746 52.7326 255.709 53.697C255.671 54.6613 254.805 55.5768 253.862 55.4652C254.474 55.8637 255.076 56.3046 255.516 56.8931C255.956 57.4816 256.219 58.2418 256.08 58.9671C255.94 59.6924 255.329 60.3403 254.602 60.372L254.443 60.4548C255.318 61.2853 255.287 62.8096 254.573 63.7856C253.858 64.7616 252.629 65.2363 251.434 65.3044C250.239 65.3725 249.054 65.0864 247.89 64.8024C246.529 64.4702 245.168 64.138 243.807 63.8058L243.802 63.8802Z" fill="#9732BC"/>
<path d="M226.023 53.4824C226.003 53.5294 225.981 53.5759 225.96 53.6219C224.169 53.695 221.337 53.7821 219.414 53.6962C219.402 53.6731 219.391 53.6499 219.379 53.6266C219.259 53.3744 219.457 53.084 219.731 53.1151L219.737 53.1158C219.737 53.1158 220.097 52.0197 221.056 52.3242C221.056 52.3242 223.213 48.8914 225.311 52.5264C225.311 52.5264 225.322 52.5242 225.345 52.5222C225.853 52.4765 226.226 53.0072 226.023 53.4824Z" fill="white"/>
<path d="M224.401 62.8211C224.358 62.9215 224.313 63.0207 224.266 63.1189C220.444 63.2748 214.4 63.4607 210.294 63.2774C210.269 63.2282 210.245 63.1787 210.221 63.1289C209.963 62.5905 210.385 61.9708 210.971 62.0371L210.985 62.0387C210.985 62.0387 211.752 59.699 213.799 60.3489C213.799 60.3489 218.404 53.0217 222.881 60.7804C222.881 60.7804 222.906 60.7758 222.953 60.7715C224.038 60.674 224.834 61.8067 224.401 62.8211Z" fill="white"/>
</g>
<rect x="209.435" y="110.074" width="45" height="16" rx="4.5" stroke="#D6D6E3"/>
<path d="M218.219 122.574C217.431 122.574 216.82 122.375 216.386 121.976C215.953 121.578 215.736 120.993 215.736 120.221V115.827C215.736 115.056 215.953 114.471 216.386 114.072C216.82 113.674 217.431 113.474 218.219 113.474H219.961V114.332H218.219C217.821 114.332 217.496 114.449 217.244 114.683C217.002 114.909 216.88 115.212 216.88 115.593V120.455C216.88 120.837 217.002 121.144 217.244 121.378C217.496 121.604 217.821 121.716 218.219 121.716H219.961V122.574H218.219ZM221.166 122.574V113.474H222.31V117.322H224.897V113.474H226.041V122.574H224.897V118.18H222.31V122.574H221.166ZM230.039 122.665C229.233 122.665 228.617 122.462 228.193 122.054C227.768 121.638 227.556 121.062 227.556 120.325V115.723C227.556 114.987 227.768 114.415 228.193 114.007C228.617 113.591 229.233 113.383 230.039 113.383C230.853 113.383 231.473 113.591 231.898 114.007C232.322 114.415 232.535 114.987 232.535 115.723V120.325C232.535 121.062 232.322 121.638 231.898 122.054C231.473 122.462 230.853 122.665 230.039 122.665ZM230.039 121.807C230.42 121.807 230.741 121.699 231.001 121.482C231.261 121.257 231.391 120.945 231.391 120.546V115.502C231.391 115.104 231.261 114.796 231.001 114.579C230.741 114.354 230.42 114.241 230.039 114.241C229.657 114.241 229.337 114.354 229.077 114.579C228.825 114.796 228.7 115.104 228.7 115.502V120.546C228.7 120.945 228.825 121.257 229.077 121.482C229.337 121.699 229.657 121.807 230.039 121.807ZM236.132 122.665C235.326 122.665 234.711 122.462 234.286 122.054C233.862 121.638 233.649 121.062 233.649 120.325V115.723C233.649 114.987 233.862 114.415 234.286 114.007C234.711 113.591 235.326 113.383 236.132 113.383C236.947 113.383 237.567 113.591 237.991 114.007C238.416 114.415 238.628 114.987 238.628 115.723V120.325C238.628 121.062 238.416 121.638 237.991 122.054C237.567 122.462 236.947 122.665 236.132 122.665ZM236.132 121.807C236.514 121.807 236.834 121.699 237.094 121.482C237.354 121.257 237.484 120.945 237.484 120.546V115.502C237.484 115.104 237.354 114.796 237.094 114.579C236.834 114.354 236.514 114.241 236.132 114.241C235.751 114.241 235.43 114.354 235.17 114.579C234.919 114.796 234.793 115.104 234.793 115.502V120.546C234.793 120.945 234.919 121.257 235.17 121.482C235.43 121.699 235.751 121.807 236.132 121.807ZM239.977 121.716H241.394C241.888 121.716 242.243 121.569 242.46 121.274C242.685 120.98 242.798 120.616 242.798 120.182C242.798 119.844 242.733 119.554 242.603 119.311C242.482 119.06 242.33 118.852 242.148 118.687C241.966 118.523 241.719 118.332 241.407 118.115C241.078 117.89 240.809 117.686 240.601 117.504C240.402 117.314 240.233 117.075 240.094 116.789C239.955 116.503 239.886 116.161 239.886 115.762C239.886 115.069 240.094 114.514 240.51 114.098C240.926 113.682 241.502 113.474 242.239 113.474H243.292V114.332H242.291C241.875 114.332 241.559 114.467 241.342 114.735C241.125 115.004 241.017 115.316 241.017 115.671C241.017 116.018 241.117 116.304 241.316 116.529C241.515 116.755 241.819 117.01 242.226 117.296C242.599 117.565 242.898 117.808 243.123 118.024C243.348 118.232 243.539 118.51 243.695 118.856C243.86 119.203 243.942 119.619 243.942 120.104C243.942 120.919 243.708 121.534 243.24 121.95C242.781 122.366 242.148 122.574 241.342 122.574H239.977V121.716ZM245.211 122.574V113.474H249.176V114.358H246.355V117.27H248.643V118.154H246.355V121.69H249.306V122.574H245.211Z" fill="#D6D6E3"/>
<rect width="125.374" height="125.598" transform="translate(340.625 12.2754)" fill="#3F3D56"/>
<rect x="369.125" y="24.0742" width="67" height="81" rx="4.5" stroke="#D6D6E3"/>
<g clip-path="url(#clip3_168_595)">
<path d="M396.348 83.8467L396.276 84.2831L396.781 84.5013L396.06 85.0104L396.132 85.7377L398.079 85.3013L398.801 85.0831L398.729 84.3558L396.348 83.8467Z" fill="#090814"/>
<path d="M396.42 85.0103C396.42 85.0103 396.059 84.4285 395.699 84.4285C395.338 84.4285 394.761 84.5739 394.761 84.5739C394.761 84.5739 393.968 85.1558 394.256 85.8831C394.545 86.6104 395.194 86.6832 395.194 86.6832L396.132 86.3195C396.132 86.3195 396.42 85.8831 396.42 85.5558V85.0103Z" fill="#090814"/>
<path d="M398.909 85.7378C399.447 85.7378 399.883 85.3959 399.883 84.9741C399.883 84.5524 399.447 84.2104 398.909 84.2104C398.371 84.2104 397.935 84.5524 397.935 84.9741C397.935 85.3959 398.371 85.7378 398.909 85.7378Z" fill="#090814"/>
<path d="M407.168 86.3923L407.24 86.9015L407.457 87.1197L407.384 87.4106L407.673 88.2834L409.548 87.9197L409.404 86.6105L407.168 86.3923Z" fill="#090814"/>
<path d="M407.601 87.4107C407.601 87.4107 407.312 86.9743 406.88 87.047C406.447 87.1197 405.798 87.4834 405.798 87.4834C405.798 87.4834 405.365 88.0653 405.581 88.6471L405.798 89.229C405.798 89.229 406.23 89.7381 406.952 89.5199C407.673 89.3017 407.817 89.0835 407.817 89.0835C407.817 89.0835 408.034 88.4289 407.962 88.138C407.889 87.8471 407.601 87.4107 407.601 87.4107Z" fill="#090814"/>
<path d="M408.827 87.847C408.827 87.847 408.971 88.6819 409.548 88.6645C410.126 88.647 410.342 88.647 410.342 88.647C410.342 88.647 411.518 87.6465 410.678 86.6194C409.837 85.5923 408.971 86.756 408.971 86.756L408.827 87.847Z" fill="#090814"/>
<path d="M397.105 81.5557C397.105 81.5557 393.859 79.5919 392.417 80.5374C390.974 81.4829 393.715 83.374 393.715 83.374L396.384 84.1013L407.279 86.6822C407.279 86.6822 408.755 87.2652 410.486 86.6833C412.218 86.1015 414.021 85.5923 414.021 85.5923C414.021 85.5923 415.824 85.0832 415.175 84.3559L413.011 84.5741L397.105 81.5557Z" fill="#9732BC"/>
<path d="M401.722 78.8645L401.145 82.5011L402.876 83.083L404.03 81.7011L404.175 79.3736L401.722 78.8645Z" fill="#ED9DA0"/>
<path d="M392.128 71.5912L390.036 71.1548L388.521 71.8094L388.81 74.4278L389.604 74.5732L390.469 73.9914H391.623L392.128 71.5912Z" fill="#ED9DA0"/>
<path d="M416.014 57.8896L412.61 58.4849L412.955 60.4886L416.359 59.8933C416.774 60.1979 417.354 60.3385 417.96 60.2324C419.021 60.0468 419.758 59.1787 419.606 58.2934C419.453 57.4081 418.47 56.8408 417.409 57.0264C416.803 57.1324 416.303 57.4619 416.014 57.8896Z" fill="#ED9DA0"/>
<path d="M389.139 62.1503L391.371 59.4916L389.832 58.1777L387.6 60.8364C387.088 60.8714 386.553 61.139 386.156 61.6126C385.46 62.4414 385.447 63.5838 386.128 64.1643C386.808 64.7448 387.923 64.5435 388.619 63.7148C389.016 63.2412 389.19 62.6654 389.139 62.1503Z" fill="#ED9DA0"/>
<path d="M396.745 57.8447L394.581 60.8268C394.581 60.8268 392.272 65.0423 396.745 67.4439L396.24 71.0821C396.24 71.0821 395.807 71.2275 396.023 71.7366L395.735 72.1003C395.735 72.1003 394.653 71.3003 392.777 71.6639C392.777 71.6639 392.272 71.0821 391.262 71.373L390.83 74.0641C390.83 74.0641 391.479 75.0096 392.344 74.7914L397.105 76.2461C397.105 76.2461 398.548 76.1006 399.269 74.9369C399.991 73.7732 401.433 70.3547 401.433 70.3547L403.525 65.4816L404.03 63.5906L404.301 61.0526L396.745 57.8447Z" fill="#090814"/>
<path d="M401.09 63.9373C401.09 63.9373 407.42 68.7547 407.276 70.3548C407.132 71.9549 404.896 78.5736 404.896 78.5736C404.896 78.5736 405.401 79.0827 404.824 79.9555C404.247 80.8283 401.09 79.3036 401.09 79.3036C401.09 79.3036 400.712 77.9917 401.433 78.2827C401.433 78.2827 401.65 73.2641 402.371 72.6095C402.371 72.6095 401.94 71.5332 402.624 71.4168C402.624 71.4168 401.938 70.9367 402.082 70.6457L395.879 66.6455" fill="#090814"/>
<path d="M407.781 39.0798C407.781 39.0798 404.968 37.5524 403.093 39.8071C401.217 42.0618 400.424 42.6437 400.424 42.6437C400.424 42.6437 397.178 40.0981 395.014 42.8619C395.014 42.8619 395.086 45.0439 392.633 44.2438C390.181 43.4438 389.026 45.553 389.026 45.553L389.229 46.7843C389.229 46.7843 389.387 45.553 389.964 45.3348C390.541 45.1166 391.263 45.1166 391.263 45.1166L392.705 45.8439C392.705 45.8439 390.83 46.4985 391.479 48.0259C391.479 48.0259 390.723 49.2624 389.983 48.0259C389.983 48.0259 388.81 49.626 391.623 49.626L393.499 50.2806C393.499 50.2806 391.605 51.9669 393.634 52.8693C395.663 53.7718 393.753 53.3024 393.753 53.3024L407.978 49.4865C407.978 49.4865 410.018 48.8987 409.729 47.4441C409.729 47.4441 410.522 46.644 410.45 45.9894C410.45 45.9894 411.316 44.6075 410.739 43.5892C410.739 43.5892 411.605 39.5889 407.781 39.0798Z" fill="#090814"/>
<path d="M410.501 44.858C410.802 42.6469 409.269 40.6081 407.076 40.3042C404.883 40.0004 402.861 41.5466 402.559 43.7578C402.369 45.1514 402.909 46.4761 403.882 47.3416C403.262 48.5032 402.269 49.472 402.269 49.472L405.734 53.3023L407.198 48.2935C408.88 48.0074 410.256 46.6515 410.501 44.858Z" fill="#ED9DA0"/>
<path d="M403.703 47.657C403.703 47.657 399.413 47.8804 398.259 49.1896C398.259 49.1896 397.466 49.0441 396.456 50.6442L392.489 53.7717C392.489 53.7717 391.046 54.2081 391.046 55.6628C391.046 55.6628 389.531 56.2446 389.675 57.6993C389.675 57.6993 388.665 57.6993 388.882 58.9357C388.882 58.9357 387.728 59.7358 388.377 60.4631C389.026 61.1905 390.324 61.6996 390.324 61.6996L391.262 60.5359C391.262 60.5359 392.2 60.0267 392.777 59.2994C392.777 59.2994 393.931 59.0085 394.148 57.9175C394.148 57.9175 395.786 57.3694 395.941 56.6252L396.961 56.0264C396.961 56.0264 395.446 57.2629 396.456 58.2084C397.466 59.1539 401.65 62.0632 404.824 60.8995C404.824 60.8995 405.978 60.0995 405.906 59.0085L407.06 57.2629L408.791 59.8813C408.791 59.8813 409.512 61.045 411.244 60.9723C411.244 60.9723 413.191 61.4087 413.913 60.6813C413.913 60.6813 416.004 60.6086 416.077 59.8813C416.149 59.1539 415.644 57.6266 415.283 57.6266H414.129C414.129 57.6266 413.48 57.0447 412.542 57.1902C412.542 57.1902 412.253 56.0992 411.821 55.9537C411.821 55.9537 411.171 54.1354 410.811 53.9899C410.811 53.9899 410.483 53.0312 410.539 52.6378C410.594 52.2443 410.017 50.3533 409.512 50.2078C409.007 50.0624 407.001 48.967 407.001 48.967C407.001 48.967 406.326 52.4179 404.174 50.4988C402.299 48.8259 403.703 47.657 403.703 47.657Z" fill="#9732BC"/>
<path d="M403.092 81.7739C403.092 81.7739 403.418 80.5231 404.301 80.8576C405.184 81.192 405.834 82.3557 405.834 82.3557L407.4 83.083C407.4 83.083 409.44 83.8831 408.935 84.5377C408.43 85.1923 406.771 85.265 406.771 85.265C406.771 85.265 405.318 85.5559 404.782 85.265C404.247 84.9741 403.092 84.7277 403.092 84.7277L402.01 84.3922L400.207 83.7376C400.207 83.7376 400.568 80.6829 401.289 80.6829C401.289 80.6829 400.712 82.0648 401.722 82.3557C402.732 82.6466 403.092 81.7739 403.092 81.7739Z" fill="#090814"/>
<path d="M389.387 73.7005C389.387 73.7005 388.954 72.2458 389.675 71.7367C390.397 71.2276 390.97 71.1549 390.97 71.1549C390.97 71.1549 389.747 69.7729 388.954 69.9911C388.16 70.2093 387.743 71.8341 387.743 71.8341L387.367 73.1186L386.574 74.3551C386.574 74.3551 386.069 76.828 387.078 77.1917C388.088 77.5553 388.521 76.7528 388.521 76.7528L388.954 75.6643L390.156 74.2017L389.387 73.7005Z" fill="#090814"/>
<path d="M408.214 41.1164C408.214 41.1164 407.276 40.971 407.276 41.5528C407.276 42.1347 405.185 44.7531 404.68 44.6076C404.175 44.4621 403.165 43.7348 403.021 44.3894C402.876 45.044 401.366 46.7844 401.366 46.7844L401.145 43.5166L403.274 40.2663L406.988 39.3708L409.873 40.68L410.539 42.2472L410.884 44.8849L409.224 41.771C409.224 41.771 409.08 40.8982 408.214 41.1164Z" fill="#090814"/>
</g>
<rect x="380.125" y="110.074" width="45" height="16" rx="4.5" stroke="#D6D6E3"/>
<path d="M389.219 122.574C388.431 122.574 387.82 122.375 387.386 121.976C386.953 121.578 386.736 120.993 386.736 120.221V115.827C386.736 115.056 386.953 114.471 387.386 114.072C387.82 113.674 388.431 113.474 389.219 113.474H390.961V114.332H389.219C388.821 114.332 388.496 114.449 388.244 114.683C388.002 114.909 387.88 115.212 387.88 115.593V120.455C387.88 120.837 388.002 121.144 388.244 121.378C388.496 121.604 388.821 121.716 389.219 121.716H390.961V122.574H389.219ZM392.166 122.574V113.474H393.31V117.322H395.897V113.474H397.041V122.574H395.897V118.18H393.31V122.574H392.166ZM401.039 122.665C400.233 122.665 399.617 122.462 399.193 122.054C398.768 121.638 398.556 121.062 398.556 120.325V115.723C398.556 114.987 398.768 114.415 399.193 114.007C399.617 113.591 400.233 113.383 401.039 113.383C401.853 113.383 402.473 113.591 402.898 114.007C403.322 114.415 403.535 114.987 403.535 115.723V120.325C403.535 121.062 403.322 121.638 402.898 122.054C402.473 122.462 401.853 122.665 401.039 122.665ZM401.039 121.807C401.42 121.807 401.741 121.699 402.001 121.482C402.261 121.257 402.391 120.945 402.391 120.546V115.502C402.391 115.104 402.261 114.796 402.001 114.579C401.741 114.354 401.42 114.241 401.039 114.241C400.657 114.241 400.337 114.354 400.077 114.579C399.825 114.796 399.7 115.104 399.7 115.502V120.546C399.7 120.945 399.825 121.257 400.077 121.482C400.337 121.699 400.657 121.807 401.039 121.807ZM407.132 122.665C406.326 122.665 405.711 122.462 405.286 122.054C404.862 121.638 404.649 121.062 404.649 120.325V115.723C404.649 114.987 404.862 114.415 405.286 114.007C405.711 113.591 406.326 113.383 407.132 113.383C407.947 113.383 408.567 113.591 408.991 114.007C409.416 114.415 409.628 114.987 409.628 115.723V120.325C409.628 121.062 409.416 121.638 408.991 122.054C408.567 122.462 407.947 122.665 407.132 122.665ZM407.132 121.807C407.514 121.807 407.834 121.699 408.094 121.482C408.354 121.257 408.484 120.945 408.484 120.546V115.502C408.484 115.104 408.354 114.796 408.094 114.579C407.834 114.354 407.514 114.241 407.132 114.241C406.751 114.241 406.43 114.354 406.17 114.579C405.919 114.796 405.793 115.104 405.793 115.502V120.546C405.793 120.945 405.919 121.257 406.17 121.482C406.43 121.699 406.751 121.807 407.132 121.807ZM410.977 121.716H412.394C412.888 121.716 413.243 121.569 413.46 121.274C413.685 120.98 413.798 120.616 413.798 120.182C413.798 119.844 413.733 119.554 413.603 119.311C413.482 119.06 413.33 118.852 413.148 118.687C412.966 118.523 412.719 118.332 412.407 118.115C412.078 117.89 411.809 117.686 411.601 117.504C411.402 117.314 411.233 117.075 411.094 116.789C410.955 116.503 410.886 116.161 410.886 115.762C410.886 115.069 411.094 114.514 411.51 114.098C411.926 113.682 412.502 113.474 413.239 113.474H414.292V114.332H413.291C412.875 114.332 412.559 114.467 412.342 114.735C412.125 115.004 412.017 115.316 412.017 115.671C412.017 116.018 412.117 116.304 412.316 116.529C412.515 116.755 412.819 117.01 413.226 117.296C413.599 117.565 413.898 117.808 414.123 118.024C414.348 118.232 414.539 118.51 414.695 118.856C414.86 119.203 414.942 119.619 414.942 120.104C414.942 120.919 414.708 121.534 414.24 121.95C413.781 122.366 413.148 122.574 412.342 122.574H410.977V121.716ZM416.211 122.574V113.474H420.176V114.358H417.355V117.27H419.643V118.154H417.355V121.69H420.306V122.574H416.211Z" fill="#D6D6E3"/>
<path d="M61.4505 23.7741C67.7354 23.7741 72.8303 18.6702 72.8303 12.3741C72.8303 6.07808 67.7354 0.974121 61.4505 0.974121C55.1657 0.974121 50.0708 6.07808 50.0708 12.3741C50.0708 18.6702 55.1657 23.7741 61.4505 23.7741Z" fill="#F2F2F2"/>
<path d="M237.267 23.7741C243.552 23.7741 248.647 18.6702 248.647 12.3741C248.647 6.07808 243.552 0.974121 237.267 0.974121C230.983 0.974121 225.888 6.07808 225.888 12.3741C225.888 18.6702 230.983 23.7741 237.267 23.7741Z" fill="#F2F2F2"/>
<path d="M405.118 23.7741C411.403 23.7741 416.498 18.6702 416.498 12.3741C416.498 6.07808 411.403 0.974121 405.118 0.974121C398.834 0.974121 393.739 6.07808 393.739 12.3741C393.739 18.6702 398.834 23.7741 405.118 23.7741Z" fill="#F2F2F2"/>
<path d="M71.8296 248.513C75.6454 262.643 88.7154 271.395 88.7154 271.395C88.7154 271.395 95.5988 257.236 91.783 243.105C87.9672 228.975 74.8971 220.223 74.8971 220.223C74.8971 220.223 68.0137 234.382 71.8296 248.513Z" fill="#3F3D56"/>
<path d="M77.4366 245.476C87.9072 255.687 89.1862 271.383 89.1862 271.383C89.1862 271.383 73.4888 270.525 63.0181 260.314C52.5475 250.103 51.2686 234.406 51.2686 234.406C51.2686 234.406 66.9659 235.265 77.4366 245.476Z" fill="#D6D6E3"/>
<path d="M419.257 284.834H50.5532V285.974H419.257V284.834Z" fill="#2F2E41"/>
<path d="M93.883 285.404H79.0894V270.584H93.883V285.404ZM80.2273 284.264H92.745V271.724H80.2273V284.264Z" fill="#3F3D56"/>
<path d="M194.603 78.7791C200.574 78.7791 205.414 73.9304 205.414 67.9491C205.414 61.9679 200.574 57.1191 194.603 57.1191C188.633 57.1191 183.792 61.9679 183.792 67.9491C183.792 73.9304 188.633 78.7791 194.603 78.7791Z" fill="#FFB8B8"/>
<path d="M188.913 73.0792C188.913 73.0792 191.758 87.8992 190.62 90.7492C189.482 93.5992 206.552 89.6092 206.552 89.6092C206.552 89.6092 203.138 74.7892 203.707 71.3692C204.276 67.9492 188.913 73.0792 188.913 73.0792Z" fill="#FFB8B8"/>
<path d="M170.137 124.379L171.275 139.769L176.922 163.939L178.671 170.549L181.516 160.289L178.671 136.919L177.705 126.398L170.137 124.379Z" fill="#FFB8B8"/>
<path d="M229.88 122.099V138.059C229.88 138.059 228.173 158.579 224.759 163.709C221.345 168.839 220.208 143.189 220.208 143.189L222.883 124.379L229.88 122.099Z" fill="#FFB8B8"/>
<path d="M179.241 171.689C179.241 171.689 176.396 175.109 178.672 209.879C180.948 244.649 177.534 269.729 184.93 269.729C184.93 269.729 182.654 277.139 188.913 277.709C195.172 278.279 198.017 278.849 198.586 277.139C199.155 275.429 200.293 267.449 198.586 267.449C198.586 267.449 198.586 269.729 199.724 260.609C200.862 251.489 200.862 208.169 203.707 202.469L212.811 223.559C212.811 223.559 212.811 233.249 214.518 237.809C216.225 242.369 219.07 268.589 219.07 268.589L218.501 272.579C218.501 272.579 232.156 274.859 232.725 272.579C233.294 270.299 233.294 266.879 232.725 265.739C232.156 264.599 232.156 264.599 233.294 262.319C234.432 260.039 234.432 258.329 233.863 256.619C233.294 254.909 233.294 217.859 233.294 217.859C233.294 217.859 232.156 172.829 225.328 170.549C218.501 168.269 179.241 171.689 179.241 171.689Z" fill="#2F2E41"/>
<path d="M186.637 273.149L182.085 281.129C182.085 281.129 174.973 278.564 176.396 285.119C188.629 285.974 197.164 284.834 197.164 284.834C197.164 284.834 200.009 285.974 200.578 284.264C201.147 282.554 199.155 276.569 197.448 276.569C195.741 276.569 186.637 273.149 186.637 273.149Z" fill="#2F2E41"/>
<path d="M219.639 270.869C219.639 270.869 215.087 281.129 216.794 281.699C218.501 282.269 233.863 284.549 235.001 285.119C236.139 285.689 241.829 286.259 242.398 282.839C242.967 279.419 239.553 278.279 239.553 278.279C239.553 278.279 233.294 277.139 231.587 271.439C229.88 265.739 219.639 270.869 219.639 270.869Z" fill="#2F2E41"/>
<path d="M207.69 87.8992C207.69 87.8992 192.327 85.0492 188.913 87.8992C185.5 90.7492 171.275 96.4492 171.275 99.2992C171.275 102.149 178.672 130.079 178.672 130.079C178.672 130.079 174.689 172.259 178.672 173.399C182.655 174.539 189.482 171.119 197.448 175.109C205.414 179.099 228.174 171.689 228.174 171.689C228.174 171.689 219.639 135.209 221.915 128.369C224.191 121.529 225.898 98.1592 225.898 98.1592C225.898 98.1592 216.225 87.8992 207.69 87.8992Z" fill="#8985A8"/>
<path d="M175.258 97.5894L171.275 98.7294C171.275 98.7294 162.74 125.519 166.154 126.659C169.568 127.799 179.24 130.079 180.378 130.079C181.516 130.079 175.258 97.5894 175.258 97.5894Z" fill="#8985A8"/>
<path d="M216.793 94.7393L225.897 98.1593C225.897 98.1593 237.846 120.389 235.001 123.239C232.156 126.089 219.638 128.939 219.638 128.939L216.793 94.7393Z" fill="#8985A8"/>
<path d="M194.275 54.5727C193.376 54.4095 192.452 54.4504 191.571 54.6923C190.865 55.0051 190.216 55.4318 189.649 55.9552C188.619 56.7771 187.52 57.5069 186.363 58.1362C185.441 58.6376 184.45 59.1017 183.806 59.9316C183.502 60.351 183.259 60.8118 183.084 61.3C181.975 64.1369 181.677 67.2271 182.224 70.2242C182.285 70.65 182.413 71.0636 182.603 71.4496C183.194 72.5411 184.5 72.9712 185.601 73.5434C187.69 74.6297 189.273 76.459 190.986 78.0756C191.623 78.712 192.338 79.2641 193.114 79.7184C195.559 81.0535 198.547 80.618 201.29 80.1459C201.485 80.1455 201.677 80.1066 201.857 80.0313C202.036 79.9561 202.199 79.8461 202.335 79.7075C202.472 79.569 202.58 79.4048 202.653 79.2243C202.726 79.0437 202.763 78.8505 202.761 78.6557L204.927 68.897C205.319 67.4512 205.506 65.957 205.482 64.4588C205.331 62.0899 204.051 58.8084 202.315 57.1257C200.293 55.165 196.918 54.853 194.275 54.5727Z" fill="#2F2E41"/>
<path d="M152.056 276.809C154.536 276.809 156.546 274.795 156.546 272.311C156.546 269.827 154.536 267.813 152.056 267.813C149.576 267.813 147.566 269.827 147.566 272.311C147.566 274.795 149.576 276.809 152.056 276.809Z" fill="#D6D6E3"/>
<path d="M152.056 285.305C149.49 285.305 146.982 284.543 144.849 283.115C142.716 281.688 141.054 279.658 140.072 277.284C139.09 274.909 138.833 272.296 139.334 269.776C139.834 267.255 141.07 264.94 142.884 263.122C144.698 261.305 147.009 260.067 149.525 259.566C152.041 259.065 154.65 259.322 157.02 260.306C159.39 261.289 161.416 262.955 162.841 265.092C164.266 267.228 165.027 269.741 165.027 272.311C165.023 275.756 163.656 279.059 161.224 281.495C158.792 283.931 155.495 285.302 152.056 285.305ZM152.056 260.316C149.688 260.316 147.373 261.019 145.404 262.337C143.435 263.656 141.9 265.529 140.994 267.721C140.087 269.912 139.85 272.324 140.312 274.651C140.774 276.978 141.915 279.115 143.589 280.793C145.264 282.47 147.397 283.612 149.72 284.075C152.043 284.538 154.45 284.301 156.638 283.393C158.826 282.485 160.696 280.947 162.012 278.975C163.327 277.002 164.029 274.683 164.029 272.311C164.026 269.131 162.763 266.082 160.518 263.833C158.274 261.585 155.23 260.32 152.056 260.316Z" fill="#2F2E41"/>
<path d="M370.547 277.379C373.027 277.379 375.037 275.365 375.037 272.881C375.037 270.397 373.027 268.383 370.547 268.383C368.067 268.383 366.057 270.397 366.057 272.881C366.057 275.365 368.067 277.379 370.547 277.379Z" fill="#D6D6E3"/>
<path d="M370.547 285.875C367.981 285.875 365.473 285.113 363.34 283.685C361.207 282.257 359.544 280.228 358.563 277.853C357.581 275.479 357.324 272.866 357.824 270.346C358.325 267.825 359.56 265.51 361.374 263.692C363.189 261.875 365.5 260.637 368.016 260.136C370.532 259.635 373.14 259.892 375.51 260.875C377.881 261.859 379.907 263.524 381.332 265.661C382.757 267.798 383.518 270.311 383.518 272.881C383.514 276.326 382.146 279.629 379.714 282.065C377.283 284.501 373.986 285.871 370.547 285.875ZM370.547 260.886C368.178 260.886 365.863 261.589 363.894 262.907C361.925 264.225 360.391 266.099 359.484 268.29C358.578 270.482 358.341 272.894 358.803 275.221C359.265 277.548 360.405 279.685 362.08 281.362C363.755 283.04 365.888 284.182 368.211 284.645C370.533 285.108 372.941 284.87 375.129 283.963C377.317 283.055 379.187 281.517 380.502 279.545C381.818 277.572 382.52 275.253 382.52 272.881C382.517 269.701 381.254 266.652 379.009 264.403C376.764 262.154 373.721 260.889 370.547 260.886Z" fill="#2F2E41"/>
<path d="M370.547 252.299C373.027 252.299 375.037 250.285 375.037 247.801C375.037 245.317 373.027 243.303 370.547 243.303C368.067 243.303 366.057 245.317 366.057 247.801C366.057 250.285 368.067 252.299 370.547 252.299Z" fill="#D6D6E3"/>
<path d="M370.547 260.795C367.981 260.795 365.473 260.033 363.34 258.605C361.207 257.177 359.544 255.148 358.563 252.773C357.581 250.399 357.324 247.786 357.824 245.266C358.325 242.745 359.56 240.429 361.374 238.612C363.189 236.795 365.5 235.557 368.016 235.056C370.532 234.554 373.14 234.812 375.51 235.795C377.881 236.779 379.907 238.444 381.332 240.581C382.757 242.718 383.518 245.231 383.518 247.801C383.514 251.246 382.146 254.549 379.714 256.985C377.283 259.421 373.986 260.791 370.547 260.795ZM370.547 235.806C368.178 235.806 365.863 236.509 363.894 237.827C361.925 239.145 360.391 241.019 359.484 243.21C358.578 245.402 358.341 247.814 358.803 250.141C359.265 252.468 360.405 254.605 362.08 256.282C363.755 257.96 365.888 259.102 368.211 259.565C370.533 260.028 372.941 259.79 375.129 258.882C377.317 257.975 379.187 256.437 380.502 254.465C381.818 252.492 382.52 250.173 382.52 247.801C382.517 244.621 381.254 241.572 379.009 239.323C376.764 237.074 373.721 235.809 370.547 235.806Z" fill="#2F2E41"/>
</g>
<defs>
<clipPath id="clip0_168_595">
<rect width="466" height="285" fill="white" transform="translate(0 0.974121)"/>
</clipPath>
<clipPath id="clip1_168_595">
<rect width="40.6173" height="47" fill="white" transform="translate(42 40.2988)"/>
</clipPath>
<clipPath id="clip2_168_595">
<rect width="54" height="38" fill="white" transform="translate(204.935 47.5742)"/>
</clipPath>
<clipPath id="clip3_168_595">
<rect width="34" height="51" fill="white" transform="translate(385.625 38.5742)"/>
</clipPath>
</defs>
</svg>
