<svg width="521" height="455" viewBox="0 0 521 455" fill="none" xmlns="http://www.w3.org/2000/svg">
<g clip-path="url(#clip0_168_756)">
<path d="M467.107 298.246H80.5762C78.1367 298.218 75.7085 297.91 73.3392 297.329C66.2676 295.63 59.976 291.595 55.4824 285.876C50.9889 280.158 48.5561 273.09 48.5778 265.818V134.436C48.5913 125.842 52.0131 117.604 58.0927 111.53C64.1722 105.456 72.4129 102.042 81.0067 102.036H467.107C472.312 102.022 477.441 103.278 482.051 105.694C483.887 106.646 485.623 107.779 487.233 109.075C491.08 112.086 494.188 115.936 496.32 120.332C498.452 124.727 499.552 129.551 499.536 134.436V265.818C499.527 274.415 496.107 282.658 490.028 288.738C483.948 294.817 475.705 298.237 467.107 298.246Z" fill="#F2F2F2"/>
<path d="M441.199 295.374C458.749 252.72 477.237 210.487 496.664 168.675V239.565C483.192 259.671 468.256 278.542 450.936 295.374H441.199Z" fill="#9732BC"/>
<path d="M485.433 111.314C450.706 173.615 414.371 234.969 376.427 295.374H369.821C408.396 234.021 445.364 171.643 480.722 108.241C482.391 109.106 483.969 110.135 485.433 111.314Z" fill="#9732BC"/>
<path d="M230.598 179.331C207.905 219.455 182.862 258.203 155.601 295.374H116.221C142.015 263.951 167.828 232.527 193.66 201.104C201.07 192.056 209.113 182.577 220.229 178.901L230.598 179.331Z" fill="#9732BC"/>
<path d="M178.264 172.897C174.157 177.177 170.221 181.629 166.516 186.254C158.359 196.077 150.316 205.987 142.245 215.868C137.218 222.014 132.192 228.161 127.222 234.308C125.644 233.294 124.146 232.161 122.742 230.919C114.804 224.03 109.881 214.306 109.027 203.831C108.173 193.357 111.456 182.964 118.172 174.88C124.888 166.797 134.504 161.665 144.958 160.586C155.412 159.507 165.873 162.565 174.099 169.106C175.582 170.262 176.974 171.53 178.264 172.897Z" fill="#D6D6E3"/>
<path d="M400.383 200.816L324.898 173.213L287.414 159.512C275.206 155.06 263.027 149.976 250.418 146.759C239.452 143.625 227.808 143.775 216.926 147.19C207.223 150.781 198.343 156.29 190.817 163.39C187.485 166.463 184.258 169.632 181.137 172.897C177.029 177.177 173.094 181.629 169.389 186.254C161.231 196.077 153.189 205.987 145.117 215.868C140.091 222.014 135.064 228.161 130.095 234.308C113.493 254.615 96.9864 274.971 80.5758 295.374C78.3681 295.348 76.1707 295.069 74.0269 294.541C91.1461 273.286 108.342 252.078 125.614 230.919C127.596 228.448 129.635 225.949 131.646 223.479C140.062 213.168 148.488 202.865 156.923 192.573C163.443 184.616 169.906 176.602 176.972 169.106C177.604 168.416 178.236 167.756 178.896 167.066C193.229 152.245 211.124 139.147 232.552 138.802C245.161 138.601 257.34 142.594 269.059 146.816C281.669 151.383 294.25 156.037 306.859 160.661L382.862 188.465L401.877 195.416C405.237 196.623 403.801 202.08 400.383 200.816Z" fill="#9732BC"/>
<path d="M2.00002 149.141V70.2661C2.00419 67.8045 2.98461 65.445 4.72621 63.7053C6.46781 61.9656 8.82835 60.9878 11.29 60.9863H113.5V58.9863H11.29C8.29808 58.9883 5.42914 60.177 3.31258 62.2917C1.19602 64.4063 0.00470005 67.2742 0 70.2661V149.141L2.00002 149.141Z" fill="#3F3D56"/>
<path d="M9.09479 339.035C7.06868 338.548 5.26603 337.392 3.97852 335.753C2.69101 334.115 1.99395 332.09 2.00007 330.006V251.141H4.99443e-05V330.006C-0.00749265 332.538 0.839478 334.999 2.4039 336.99C3.96833 338.981 6.15871 340.386 8.62067 340.977C9.44555 341.179 10.2909 341.287 11.1402 341.296H113.5V339.296H11.1524C10.4588 339.288 9.7685 339.2 9.09479 339.035Z" fill="#3F3D56"/>
<path d="M467 251.141V330.006C466.997 332.469 466.017 334.831 464.276 336.572C462.534 338.314 460.173 339.293 457.71 339.296H355.5V341.296H457.71C460.703 341.293 463.573 340.103 465.69 337.986C467.806 335.869 468.997 333 469 330.006V251.141H467Z" fill="#3F3D56"/>
<path d="M464.991 62.0347C465.516 62.307 466.012 62.6312 466.472 63.0024C467.575 63.8644 468.466 64.9669 469.077 66.2258C469.689 67.4847 470.004 68.8666 470 70.2661V149.141H472V70.2662C472.006 68.5655 471.623 66.886 470.88 65.3558C470.138 63.8257 469.056 62.4853 467.717 61.4371C467.156 60.9856 466.552 60.5912 465.913 60.2598C464.308 59.4187 462.522 58.9816 460.71 58.9864H358.5V60.9864H460.71C462.201 60.9825 463.671 61.3423 464.991 62.0347Z" fill="#3F3D56"/>
<path d="M159.452 423.555C154.278 423.555 149.219 422.02 144.917 419.146C140.614 416.271 137.26 412.184 135.28 407.404C133.3 402.623 132.782 397.362 133.791 392.287C134.801 387.212 137.293 382.55 140.952 378.89C144.611 375.231 149.273 372.74 154.348 371.73C159.423 370.72 164.684 371.239 169.465 373.219C174.246 375.199 178.332 378.553 181.207 382.855C184.082 387.158 185.616 392.216 185.616 397.391C185.616 404.33 182.86 410.985 177.953 415.892C173.046 420.798 166.391 423.555 159.452 423.555Z" fill="#9732BC"/>
<path d="M169.776 394.81H162.034V387.068C162.032 386.384 161.76 385.729 161.276 385.246C160.792 384.763 160.136 384.492 159.453 384.492C158.769 384.492 158.113 384.763 157.629 385.246C157.146 385.729 156.873 386.384 156.872 387.068V394.81H149.129C148.445 394.812 147.79 395.084 147.307 395.568C146.824 396.052 146.553 396.708 146.553 397.391C146.553 398.075 146.824 398.73 147.307 399.214C147.79 399.698 148.445 399.971 149.129 399.972H156.872V407.715C156.873 408.398 157.146 409.054 157.629 409.536C158.113 410.019 158.769 410.291 159.453 410.291C160.136 410.291 160.792 410.019 161.276 409.536C161.76 409.054 162.032 408.398 162.034 407.715V399.972H169.776C170.116 399.973 170.452 399.907 170.765 399.777C171.079 399.648 171.364 399.458 171.604 399.218C171.845 398.978 172.035 398.694 172.165 398.38C172.295 398.067 172.362 397.731 172.362 397.391C172.362 397.052 172.295 396.716 172.165 396.402C172.035 396.089 171.845 395.804 171.604 395.564C171.364 395.325 171.079 395.135 170.765 395.005C170.452 394.876 170.116 394.81 169.776 394.81Z" fill="white"/>
<path d="M236 423.555C230.826 423.555 225.767 422.02 221.464 419.146C217.162 416.271 213.808 412.184 211.828 407.404C209.848 402.623 209.33 397.362 210.339 392.287C211.349 387.212 213.841 382.55 217.5 378.89C221.159 375.231 225.821 372.74 230.896 371.73C235.971 370.72 241.232 371.239 246.013 373.219C250.794 375.199 254.88 378.553 257.755 382.855C260.63 387.158 262.164 392.216 262.164 397.391C262.164 404.33 259.408 410.985 254.501 415.892C249.594 420.798 242.939 423.555 236 423.555Z" fill="#9732BC"/>
<path d="M246.324 394.81H225.676C224.993 394.812 224.338 395.084 223.855 395.568C223.372 396.052 223.101 396.708 223.101 397.391C223.101 398.075 223.372 398.73 223.855 399.214C224.338 399.698 224.993 399.971 225.676 399.972H246.324C247.008 399.972 247.665 399.7 248.149 399.216C248.633 398.732 248.904 398.076 248.904 397.391C248.904 396.707 248.633 396.05 248.149 395.566C247.665 395.082 247.008 394.81 246.324 394.81Z" fill="white"/>
<path d="M312.548 423.555C307.373 423.555 302.314 422.02 298.012 419.146C293.709 416.271 290.356 412.184 288.375 407.404C286.395 402.623 285.877 397.362 286.887 392.287C287.896 387.212 290.388 382.55 294.047 378.89C297.706 375.231 302.368 372.74 307.443 371.73C312.519 370.72 317.779 371.239 322.56 373.219C327.341 375.199 331.427 378.553 334.302 382.855C337.177 387.158 338.711 392.216 338.711 397.391C338.711 404.33 335.955 410.985 331.048 415.892C326.142 420.798 319.487 423.555 312.548 423.555Z" fill="#9732BC"/>
<path d="M327.267 396.148L319.849 385.322C319.686 385.084 319.478 384.88 319.236 384.722C318.994 384.564 318.723 384.456 318.439 384.403C318.155 384.35 317.863 384.353 317.581 384.413C317.298 384.473 317.03 384.587 316.792 384.751C316.553 384.914 316.349 385.122 316.192 385.364C316.034 385.607 315.925 385.877 315.872 386.161C315.819 386.445 315.823 386.737 315.882 387.019C315.942 387.302 316.057 387.57 316.22 387.809L321.017 394.81H302.224C301.885 394.81 301.549 394.877 301.236 395.007C300.923 395.136 300.639 395.327 300.399 395.566C300.159 395.806 299.969 396.09 299.839 396.404C299.71 396.717 299.643 397.052 299.643 397.391C299.643 397.73 299.71 398.066 299.839 398.379C299.969 398.692 300.159 398.976 300.399 399.216C300.639 399.456 300.923 399.646 301.236 399.776C301.549 399.905 301.885 399.972 302.224 399.972H321.253L316.22 407.318C315.89 407.8 315.765 408.392 315.872 408.966C315.98 409.539 316.31 410.047 316.792 410.376C317.273 410.706 317.865 410.831 318.439 410.724C319.012 410.617 319.52 410.286 319.849 409.805L327.267 398.979C327.508 398.546 327.635 398.059 327.635 397.563C327.635 397.068 327.508 396.581 327.267 396.148Z" fill="white"/>
<path d="M236 56.5341C251.343 56.5341 263.78 44.0966 263.78 28.7541C263.78 13.4117 251.343 0.974121 236 0.974121C220.658 0.974121 208.22 13.4117 208.22 28.7541C208.22 44.0966 220.658 56.5341 236 56.5341Z" fill="#9732BC"/>
<path d="M228.125 27.7241L232.058 23.7908C232.146 23.7035 232.257 23.6441 232.378 23.62C232.499 23.5959 232.625 23.6083 232.739 23.6555C232.853 23.7028 232.951 23.7828 233.019 23.8855C233.088 23.9882 233.125 24.1089 233.125 24.2325V33.7158C233.125 33.8393 233.088 33.9601 233.019 34.0627C232.951 34.1654 232.853 34.2454 232.739 34.2927C232.625 34.34 232.499 34.3523 232.378 34.3283C232.257 34.3042 232.146 34.2448 232.058 34.1575L228.125 30.2241M218.75 34.5991H226.25C226.747 34.5991 227.224 34.4016 227.576 34.0499C227.927 33.6983 228.125 33.2214 228.125 32.7241V25.2241C228.125 24.7268 227.927 24.2499 227.576 23.8983C227.224 23.5467 226.747 23.3491 226.25 23.3491H218.75C218.253 23.3491 217.776 23.5467 217.424 23.8983C217.073 24.2499 216.875 24.7268 216.875 25.2241V32.7241C216.875 33.2214 217.073 33.6983 217.424 34.0499C217.776 34.4016 218.253 34.5991 218.75 34.5991Z" stroke="white" stroke-width="2" stroke-linecap="round" stroke-linejoin="round"/>
<path d="M253.052 22.7132L254.457 21.3066C254.751 21.0135 255.148 20.8489 255.562 20.8489C255.977 20.8489 256.374 21.0135 256.667 21.3066C256.961 21.5996 257.125 21.9971 257.125 22.4116C257.125 22.826 256.961 23.2235 256.667 23.5166L244.693 35.4907C244.253 35.9311 243.709 36.2547 243.112 36.4324L240.875 37.0991L241.542 34.8616C241.719 34.2646 242.043 33.7213 242.483 33.2807L253.053 22.7132H253.052ZM253.052 22.7132L255.25 24.9116" stroke="white" stroke-width="1.5" stroke-linecap="round" stroke-linejoin="round"/>
</g>
<defs>
<clipPath id="clip0_168_756">
<rect width="521" height="454" fill="white" transform="translate(0 0.974121)"/>
</clipPath>
</defs>
</svg>
