<svg width="1440" height="755" viewBox="0 0 1440 755" fill="none" xmlns="http://www.w3.org/2000/svg">
<g clip-path="url(#clip0_188_153)">
<path opacity="0.43" d="M54.2963 754.974L1 701.054M54.2963 701.054L107.593 754.974L160.889 701.054M54.2963 701.054L1 647.135L54.2963 593.215M54.2963 701.054L107.593 647.135L160.889 701.054M160.889 701.054L214.185 754.974M267.481 754.974L214.185 701.054M214.185 701.054L267.481 647.135L214.185 593.215L267.481 539.295M214.185 701.054L107.593 593.215M320.778 754.974L267.481 701.054L320.778 647.135M427.37 701.054L374.074 754.974L320.778 701.054L533.963 485.375M427.37 754.974L480.667 701.054M480.667 701.054L533.963 754.974L640.556 647.135M480.667 701.054L427.37 647.135M480.667 701.054L533.963 647.135L480.667 593.215M587.259 754.974L640.556 701.054M640.556 701.054L693.852 754.974M640.556 701.054L693.852 647.135M800.444 754.974L907.037 647.135M853.741 754.974L907.037 701.054L960.333 754.974L1013.63 701.054M1013.63 754.974L1066.93 701.054M1066.93 701.054L1120.22 754.974M1066.93 701.054L1013.63 647.135L960.333 701.054L907.037 647.135M1066.93 701.054L1120.22 647.135L1066.93 593.215M1226.81 701.054L1173.52 754.974L1120.22 701.054L1173.52 647.135L1120.22 593.215L1226.81 485.375M1226.81 701.054L1280.11 754.974M1226.81 701.054L1280.11 647.135M1280.11 701.054L1333.41 754.974L1440 647.135L1386.7 593.215L1333.41 647.135L1226.81 539.295M1386.7 754.974L1440 701.054M320.778 647.135L267.481 593.215M320.778 647.135L480.667 485.375M374.074 701.054L427.37 647.135M427.37 647.135L480.667 593.215M533.963 701.054L587.259 647.135M587.259 647.135L533.963 593.215L587.259 539.295L640.556 593.215M587.259 647.135L640.556 593.215M693.852 647.135L640.556 593.215M693.852 647.135L747.148 593.215M747.148 647.135L693.852 701.054L747.148 754.974L853.741 647.135M747.148 701.054L800.444 647.135M800.444 647.135L747.148 593.215M800.444 647.135L853.741 593.215M907.037 647.135L853.741 593.215M907.037 647.135L960.333 593.215L907.037 539.295M1173.52 701.054L1226.81 647.135L1173.52 593.215L1226.81 539.295M1280.11 647.135L1333.41 701.054L1386.7 647.135M1280.11 647.135L1226.81 593.215M54.2963 647.135L107.593 593.215M107.593 593.215L54.2963 539.295M214.185 647.135L160.889 593.215M160.889 593.215L107.593 539.295M160.889 593.215L214.185 539.295M480.667 593.215L587.259 485.375M747.148 593.215L693.852 539.295L800.444 431.456L747.148 377.536M747.148 593.215L800.444 539.295M853.741 593.215L800.444 539.295M853.741 593.215L907.037 539.295M960.333 647.135L1013.63 593.215M1013.63 593.215L1066.93 647.135M1013.63 593.215L960.333 539.295L1013.63 485.375M1066.93 593.215L1013.63 539.295L1066.93 485.375M1066.93 593.215L1173.52 485.375M1 593.215L54.2963 539.295M54.2963 539.295L107.593 485.375M267.481 539.295L320.778 593.215L427.37 485.375L374.074 431.456M267.481 539.295L214.185 485.375M693.852 593.215L640.556 539.295M640.556 539.295L587.259 485.375M640.556 539.295L693.852 485.375M800.444 539.295L853.741 485.375M907.037 539.295L960.333 485.375L907.037 431.456M1226.81 539.295L1280.11 485.375M1280.11 539.295L1333.41 593.215L1386.7 539.295L1440 593.215M1 539.295L107.593 431.456M107.593 485.375L160.889 539.295L214.185 485.375M107.593 485.375L160.889 431.456L214.185 485.375M214.185 485.375L267.481 431.456M374.074 485.375L320.778 539.295L267.481 485.375L320.778 431.456M480.667 485.375L427.37 431.456L480.667 377.536L533.963 431.456M480.667 485.375L533.963 431.456M587.259 485.375L533.963 431.456M587.259 485.375L640.556 431.456M693.852 485.375L640.556 431.456M693.852 485.375L747.148 431.456L693.852 377.536L640.556 431.456M747.148 539.295L853.741 431.456M853.741 539.295L907.037 485.375L853.741 431.456M1013.63 485.375L960.333 431.456L1013.63 377.536M1013.63 485.375L1066.93 431.456L1120.22 485.375M1066.93 539.295L1120.22 485.375M1120.22 485.375L1173.52 431.456M1226.81 485.375L1173.52 431.456M1226.81 485.375L1280.11 431.456M1280.11 485.375L1333.41 539.295L1386.7 485.375L1440 539.295M1280.11 485.375L1333.41 431.456L1280.11 377.536L1226.81 431.456L1173.52 377.536M1 485.375L54.2963 431.456L1 377.536M107.593 431.456L54.2963 377.536M107.593 431.456L160.889 377.536L214.185 431.456L267.481 377.536L320.778 431.456M320.778 431.456L374.074 377.536M320.778 485.375L374.074 431.456M374.074 431.456L427.37 377.536M533.963 431.456L587.259 377.536L640.556 431.456M853.741 431.456L800.444 377.536M907.037 431.456L853.741 377.536M907.037 431.456L960.333 377.536M1173.52 431.456L1120.22 377.536M1333.41 485.375L1386.7 431.456M1386.7 431.456L1440 485.375M1386.7 431.456L1333.41 377.536M1013.63 431.456L1066.93 377.536L1120.22 431.456M1440 431.456L1386.7 377.536M54.2963 0.974121L1 54.8939M54.2963 54.8939L107.593 0.974121L160.889 54.8939M54.2963 54.8939L1 108.814L54.2963 162.733M54.2963 54.8939L107.593 108.814L160.889 54.8939M160.889 54.8939L214.185 0.974121M267.481 0.974121L214.185 54.8939M214.185 54.8939L267.481 108.814L214.185 162.733L267.481 216.653M214.185 54.8939L107.593 162.733M320.778 0.974121L267.481 54.8939L320.778 108.814M427.37 54.8939L374.074 0.974121L320.778 54.8939L533.963 270.573M427.37 0.974121L480.667 54.8939M480.667 54.8939L533.963 0.974121L640.556 108.814M480.667 54.8939L427.37 108.814M480.667 54.8939L533.963 108.814L480.667 162.733M587.259 0.974121L640.556 54.8939M640.556 54.8939L693.852 0.974121M640.556 54.8939L693.852 108.814M800.444 0.974121L907.037 108.814M853.741 0.974121L907.037 54.8939L960.333 0.974121L1013.63 54.8939M1013.63 0.974121L1066.93 54.8939M1066.93 54.8939L1120.22 0.974121M1066.93 54.8939L1013.63 108.814L960.333 54.8939L907.037 108.814M1066.93 54.8939L1120.22 108.814L1066.93 162.733M1226.81 54.8939L1173.52 0.974121L1120.22 54.8939L1173.52 108.814L1120.22 162.733L1226.81 270.573M1226.81 54.8939L1280.11 0.974121M1226.81 54.8939L1280.11 108.814M1280.11 54.8939L1333.41 0.974121L1440 108.814L1386.7 162.733L1333.41 108.814L1226.81 216.653M1386.7 0.974121L1440 54.8939M320.778 108.814L267.481 162.733M320.778 108.814L480.667 270.573M374.074 54.8939L427.37 108.814M427.37 108.814L480.667 162.733M533.963 54.8939L587.259 108.814M587.259 108.814L533.963 162.733L587.259 216.653L640.556 162.733M587.259 108.814L640.556 162.733M693.852 108.814L640.556 162.733M693.852 108.814L747.148 162.733M747.148 108.814L693.852 54.8939L747.148 0.974121L853.741 108.814M747.148 54.8939L800.444 108.814M800.444 108.814L747.148 162.733M800.444 108.814L853.741 162.733M907.037 108.814L853.741 162.733M907.037 108.814L960.333 162.733L907.037 216.653M1173.52 54.8939L1226.81 108.814L1173.52 162.733L1226.81 216.653M1280.11 108.814L1333.41 54.8939L1386.7 108.814M1280.11 108.814L1226.81 162.733M54.2963 108.814L107.593 162.733M107.593 162.733L54.2963 216.653M214.185 108.814L160.889 162.733M160.889 162.733L107.593 216.653M160.889 162.733L214.185 216.653M480.667 162.733L587.259 270.573M747.148 162.733L693.852 216.653L800.444 324.493L747.148 378.412M747.148 162.733L800.444 216.653M853.741 162.733L800.444 216.653M853.741 162.733L907.037 216.653M960.333 108.814L1013.63 162.733M1013.63 162.733L1066.93 108.814M1013.63 162.733L960.333 216.653L1013.63 270.573M1066.93 162.733L1013.63 216.653L1066.93 270.573M1066.93 162.733L1173.52 270.573M1 162.733L54.2963 216.653M54.2963 216.653L107.593 270.573M267.481 216.653L320.778 162.733L427.37 270.573L374.074 324.493M267.481 216.653L214.185 270.573M693.852 162.733L640.556 216.653M640.556 216.653L587.259 270.573M640.556 216.653L693.852 270.573M800.444 216.653L853.741 270.573M907.037 216.653L960.333 270.573L907.037 324.493M1226.81 216.653L1280.11 270.573M1280.11 216.653L1333.41 162.733L1386.7 216.653L1440 162.733M1 216.653L107.593 324.493M107.593 270.573L160.889 216.653L214.185 270.573M107.593 270.573L160.889 324.493L214.185 270.573M214.185 270.573L267.481 324.493M374.074 270.573L320.778 216.653L267.481 270.573L320.778 324.493M480.667 270.573L427.37 324.493L480.667 378.412L533.963 324.493M480.667 270.573L533.963 324.493M587.259 270.573L533.963 324.493M587.259 270.573L640.556 324.493M693.852 270.573L640.556 324.493M693.852 270.573L747.148 324.493L693.852 378.412L640.556 324.493M747.148 216.653L853.741 324.493M853.741 216.653L907.037 270.573L853.741 324.493M1013.63 270.573L960.333 324.493L1013.63 378.412M1013.63 270.573L1066.93 324.493L1120.22 270.573M1066.93 216.653L1120.22 270.573M1120.22 270.573L1173.52 324.493M1226.81 270.573L1173.52 324.493M1226.81 270.573L1280.11 324.493M1280.11 270.573L1333.41 216.653L1386.7 270.573L1440 216.653M1280.11 270.573L1333.41 324.493L1280.11 378.412L1226.81 324.493L1173.52 378.412M1 270.573L54.2963 324.493L1 378.412M107.593 324.493L54.2963 378.412M107.593 324.493L160.889 378.412L214.185 324.493L267.481 378.412L320.778 324.493M320.778 324.493L374.074 378.412M320.778 270.573L374.074 324.493M374.074 324.493L427.37 378.412M533.963 324.493L587.259 378.412L640.556 324.493M853.741 324.493L800.444 378.412M907.037 324.493L853.741 378.412M907.037 324.493L960.333 378.412M1173.52 324.493L1120.22 378.412M1333.41 270.573L1386.7 324.493M1386.7 324.493L1440 270.573M1386.7 324.493L1333.41 378.412M1013.63 324.493L1066.93 378.412L1120.22 324.493" stroke="url(#paint0_linear_188_153)"/>
</g>
<defs>
<linearGradient id="paint0_linear_188_153" x1="720.5" y1="0.974121" x2="720.5" y2="754.974" gradientUnits="userSpaceOnUse">
<stop stop-color="#FF09AD" stop-opacity="0"/>
<stop offset="0.5" stop-color="#FF09AD"/>
<stop offset="1" stop-color="#FF09AD" stop-opacity="0"/>
</linearGradient>
<clipPath id="clip0_188_153">
<rect width="1440" height="754" fill="white" transform="translate(0 0.974121)"/>
</clipPath>
</defs>
</svg>
