<svg width="139" height="105" viewBox="0 0 139 105" fill="none" xmlns="http://www.w3.org/2000/svg">
<g clip-path="url(#clip0_159_5954)">
<path opacity="0.88" d="M88.1699 30.5038C92.6792 33.3275 92.6028 39.8886 88.027 42.6065L50.9042 64.6612C46.1735 67.4721 40.1585 64.123 40.097 58.6447L39.5928 13.0314C39.5299 7.40825 45.7549 3.94913 50.542 6.94532L88.1699 30.5038Z" fill="url(#paint0_linear_159_5954)"/>
<path d="M54.1428 47.9249C53.7939 48.2784 53.4416 48.6587 53.0713 48.9899L54.1428 47.9249C56.6616 45.3765 59.7451 41.0154 57.8786 38.6122C57.922 38.2625 58.2173 37.5485 59.0547 37.4917C60.4037 38.0312 63.7705 38.2319 67.2392 35.2486L68.2736 34.2635C67.9289 34.625 67.5838 34.9525 67.2392 35.2486L54.1428 47.9249ZM56.291 50.5904C55.944 50.9456 55.6081 51.3114 55.284 51.6874L56.291 50.5904C58.7926 48.0258 62.979 44.7794 65.4481 46.5689C65.7991 46.5169 66.5107 46.2049 66.5464 45.3738C65.9686 44.0489 65.6791 40.7142 68.5946 37.1961L69.5599 36.1448C69.205 36.4958 68.8838 36.8471 68.5946 37.1961L56.291 50.5904Z" fill="white"/>
<path d="M67.8293 34.437L69.7936 36.3895L44.0914 64.9649C42.1414 64.6539 41.02 63.2374 40.52 61.0599L67.8293 34.437Z" fill="white"/>
<path d="M69.6357 36.5474C68.6749 37.5023 67.4564 37.8396 66.9142 37.3C66.3714 36.7611 66.7107 35.5498 67.6714 34.5949C68.6321 33.6392 69.8514 33.3027 70.3935 33.8423C70.9364 34.3812 70.5971 35.5924 69.6364 36.5474H69.6357Z" fill="white"/>
<path d="M51.7659 29.1403C51.4193 28.7312 50.8046 28.679 50.3931 29.0235C49.9816 29.3681 49.929 29.9791 50.2756 30.3881L54.3156 35.1553C54.6623 35.5643 55.2769 35.6166 55.6884 35.272C56.1 34.9274 56.1525 34.3165 55.8059 33.9074L51.7659 29.1403Z" fill="white"/>
<path d="M60.1746 29.1097C60.1676 28.7176 59.8422 28.4054 59.4478 28.4123C59.0534 28.4192 58.7393 28.7426 58.7462 29.1347L58.8093 32.692C58.8162 33.084 59.1416 33.3962 59.536 33.3893C59.9304 33.3824 60.2445 33.059 60.2376 32.6669L60.1746 29.1097Z" fill="white"/>
<path d="M52.3394 39.7735C52.7338 39.7658 53.0473 39.4418 53.0396 39.0497C53.0319 38.6577 52.7059 38.3461 52.3115 38.3537L48.7329 38.4233C48.3385 38.4309 48.025 38.755 48.0327 39.147C48.0404 39.5391 48.3664 39.8507 48.7608 39.843L52.3394 39.7735Z" fill="white"/>
<path d="M83.0193 13.49C83.0193 14.8081 83.5461 16.0722 84.4838 17.0043C85.4214 17.9363 86.6932 18.46 88.0193 18.46C86.6932 18.46 85.4214 18.9836 84.4838 19.9156C83.5461 20.8477 83.0193 22.1118 83.0193 23.43C83.0193 22.1118 82.4925 20.8477 81.5548 19.9156C80.6171 18.9836 79.3454 18.46 78.0193 18.46C79.3454 18.46 80.6171 17.9363 81.5548 17.0043C82.4925 16.0722 83.0193 14.8081 83.0193 13.49ZM91.9479 0.709961C91.9479 5.6118 95.945 9.58496 100.876 9.58496C95.945 9.58496 91.9479 13.5581 91.9479 18.46C91.9479 13.5581 87.95 9.58496 83.0193 9.58496C87.95 9.58496 91.9479 5.6118 91.9479 0.709961Z" fill="#FEA45B" stroke="#FEA45B" stroke-width="2" stroke-linecap="round" stroke-linejoin="round"/>
</g>
<path d="M1.55863 84.5484C1.55863 84.3252 1.52456 84.1621 1.45642 84.059C1.40532 83.956 1.31163 83.8358 1.17535 83.6984C0.987976 83.5439 0.894287 83.355 0.894287 83.1318C0.894287 83.0116 0.902804 82.9171 0.919839 82.8484C1.00501 82.4191 1.2009 82.0671 1.50752 81.7924C1.83117 81.5005 2.20593 81.3545 2.63179 81.3545C3.10875 81.3545 3.52609 81.509 3.88381 81.8181H7.35881C9.77768 81.8181 11.6174 82.2989 12.8779 83.2606C14.1385 84.2222 14.7687 85.6474 14.7687 87.5363C14.7687 89.0818 14.3514 90.3181 13.5167 91.2454C12.682 92.1555 11.4641 92.7308 9.86285 92.9712L14.3599 99.8484H10.4761L6.15789 93.2545H4.98252V99.8484H1.55863V84.5484ZM7.43546 90.2924C8.73007 90.2924 9.69251 90.0863 10.3228 89.6742C10.9701 89.2621 11.2937 88.5495 11.2937 87.5363C11.2937 86.5232 10.9701 85.8191 10.3228 85.4242C9.69251 85.0121 8.73007 84.806 7.43546 84.806H4.98252V90.2924H7.43546Z" fill="white"/>
<path d="M22.0226 100.106C19.9784 100.106 18.3602 99.5308 17.1678 98.3803C15.9924 97.2298 15.4047 95.6671 15.4047 93.6924C15.4047 92.4045 15.6432 91.2626 16.1202 90.2666C16.5971 89.2707 17.3041 88.4979 18.2409 87.9484C19.1778 87.3818 20.3106 87.0984 21.6393 87.0984C22.9339 87.0984 24.0582 87.3732 25.0121 87.9227C25.966 88.455 26.69 89.1934 27.184 90.1378C27.6779 91.0651 27.9249 92.104 27.9249 93.2545C27.9249 93.8212 27.7376 94.259 27.3628 94.5681C27.0051 94.8601 26.5026 95.006 25.8553 95.006H18.752C18.752 95.7101 19.0501 96.2767 19.6463 96.706C20.2595 97.1353 21.0516 97.35 22.0226 97.35C22.8232 97.35 23.496 97.2383 24.0411 97.0151C24.6033 96.7747 25.0973 96.4399 25.5231 96.0106L27.2095 97.8136C26.6474 98.5348 25.9234 99.1015 25.0376 99.5136C24.1518 99.9085 23.1468 100.106 22.0226 100.106ZM24.5777 92.353C24.5777 91.5974 24.2966 90.9878 23.7345 90.5242C23.1894 90.0434 22.491 89.803 21.6393 89.803C20.8216 89.803 20.1317 90.0434 19.5696 90.5242C19.0245 90.9878 18.752 91.5974 18.752 92.353H24.5777Z" fill="white"/>
<path d="M35.1606 100.106C33.1165 100.106 31.4982 99.5308 30.3058 98.3803C29.1305 97.2298 28.5428 95.6671 28.5428 93.6924C28.5428 92.4045 28.7813 91.2626 29.2582 90.2666C29.7352 89.2707 30.4421 88.4979 31.379 87.9484C32.3159 87.3818 33.4487 87.0984 34.7773 87.0984C36.0719 87.0984 37.1962 87.3732 38.1501 87.9227C39.104 88.455 39.828 89.1934 40.322 90.1378C40.816 91.0651 41.063 92.104 41.063 93.2545C41.063 93.8212 40.8756 94.259 40.5009 94.5681C40.1431 94.8601 39.6406 95.006 38.9933 95.006H31.89C31.89 95.7101 32.1881 96.2767 32.7843 96.706C33.3976 97.1353 34.1896 97.35 35.1606 97.35C35.9612 97.35 36.6341 97.2383 37.1792 97.0151C37.7413 96.7747 38.2353 96.4399 38.6612 96.0106L40.3475 97.8136C39.7854 98.5348 39.0615 99.1015 38.1757 99.5136C37.2899 99.9085 36.2849 100.106 35.1606 100.106ZM37.7158 92.353C37.7158 91.5974 37.4347 90.9878 36.8726 90.5242C36.3275 90.0434 35.629 89.803 34.7773 89.803C33.9597 89.803 33.2698 90.0434 32.7077 90.5242C32.1626 90.9878 31.89 91.5974 31.89 92.353H37.7158Z" fill="white"/>
<path d="M42.5851 80.9424H45.9579V99.8484H42.5851V80.9424Z" fill="white"/>
<path d="M50.1657 85.9394C49.5014 85.9394 48.9478 85.7333 48.5049 85.3212C48.079 84.909 47.8661 84.3853 47.8661 83.75C47.8661 83.1146 48.079 82.5909 48.5049 82.1787C48.9478 81.7666 49.5014 81.5606 50.1657 81.5606C50.83 81.5606 51.3751 81.7666 51.801 82.1787C52.2439 82.5909 52.4653 83.1146 52.4653 83.75C52.4653 84.3853 52.2439 84.909 51.801 85.3212C51.3751 85.7333 50.83 85.9394 50.1657 85.9394ZM48.4793 87.356H51.8521V99.8484H48.4793V87.356Z" fill="white"/>
<path d="M60.981 100.106C58.8346 100.106 57.1568 99.5308 55.9473 98.3803C54.7379 97.2298 54.1332 95.6414 54.1332 93.6151C54.1332 91.5717 54.7294 89.9747 55.9218 88.8242C57.1142 87.6737 58.758 87.0984 60.8532 87.0984C61.8242 87.0984 62.727 87.2616 63.5617 87.5878C64.3963 87.8969 65.0692 88.309 65.5802 88.8242L64.4304 91.0651C63.4424 90.258 62.3011 89.8545 61.0065 89.8545C59.9334 89.8545 59.0902 90.1636 58.4769 90.7818C57.8637 91.4 57.5571 92.3444 57.5571 93.6151C57.5571 94.8686 57.8637 95.8045 58.4769 96.4227C59.1072 97.0409 59.9759 97.35 61.0832 97.35C61.7134 97.35 62.2756 97.2555 62.7696 97.0666C63.2806 96.8606 63.7661 96.5343 64.226 96.0878L65.989 97.9424C65.4269 98.6121 64.703 99.1444 63.8172 99.5394C62.9314 99.9171 61.986 100.106 60.981 100.106Z" fill="white"/>
<path d="M69.9541 85.9394C69.2898 85.9394 68.7362 85.7333 68.2933 85.3212C67.8674 84.909 67.6545 84.3853 67.6545 83.75C67.6545 83.1146 67.8674 82.5909 68.2933 82.1787C68.7362 81.7666 69.2898 81.5606 69.9541 81.5606C70.6185 81.5606 71.1636 81.7666 71.5894 82.1787C72.0323 82.5909 72.2537 83.1146 72.2537 83.75C72.2537 84.3853 72.0323 84.909 71.5894 85.3212C71.1636 85.7333 70.6185 85.9394 69.9541 85.9394ZM68.2677 87.356H71.6405V99.8484H68.2677V87.356Z" fill="white"/>
<path d="M80.2839 100.132C79.0063 100.132 77.8821 99.8656 76.9111 99.3333C75.9572 98.7838 75.2162 98.0197 74.6881 97.0409C74.1771 96.0449 73.9216 94.903 73.9216 93.6151C73.9216 92.3272 74.1771 91.1939 74.6881 90.2151C75.2162 89.2191 75.9572 88.455 76.9111 87.9227C77.8821 87.3732 79.0063 87.0984 80.2839 87.0984C81.5615 87.0984 82.6772 87.3732 83.6311 87.9227C84.6021 88.455 85.3431 89.2191 85.8541 90.2151C86.3822 91.1939 86.6462 92.3272 86.6462 93.6151C86.6462 94.903 86.3822 96.0449 85.8541 97.0409C85.3431 98.0197 84.6021 98.7838 83.6311 99.3333C82.6772 99.8656 81.5615 100.132 80.2839 100.132ZM80.2839 97.3757C81.2549 97.3757 81.9873 97.0495 82.4813 96.3969C82.9753 95.7272 83.2223 94.8 83.2223 93.6151C83.2223 92.4303 82.9753 91.5116 82.4813 90.859C81.9873 90.1894 81.2549 89.8545 80.2839 89.8545C79.3129 89.8545 78.5805 90.1894 78.0865 90.859C77.5925 91.5116 77.3455 92.4303 77.3455 93.6151C77.3455 94.8 77.5925 95.7272 78.0865 96.3969C78.5805 97.0495 79.3129 97.3757 80.2839 97.3757Z" fill="white"/>
<path d="M92.9411 100.106C91.9871 100.106 91.1439 99.8914 90.4115 99.4621C89.679 99.0156 89.0998 98.3888 88.674 97.5818C88.2651 96.7575 88.0607 95.8131 88.0607 94.7484V87.356H91.4335V94.7484C91.4335 96.4828 92.2427 97.35 93.8609 97.35C94.7126 97.35 95.3514 97.0666 95.7773 96.5C96.2031 95.9161 96.4161 95.152 96.4161 94.2075V87.356H99.7888V96.3454C99.7888 96.8606 99.8229 97.307 99.8911 97.6848C99.9762 98.0626 100.13 98.4833 100.351 98.9469L97.3615 100.106C97.2082 99.8313 97.0634 99.505 96.9271 99.1272C96.8078 98.7495 96.7397 98.4232 96.7227 98.1484C95.871 99.4535 94.6104 100.106 92.9411 100.106Z" fill="white"/>
<path d="M107.829 100.106C106.62 100.106 105.478 99.8914 104.405 99.4621C103.349 99.0156 102.421 98.3803 101.62 97.556L103.511 95.5212C104.09 96.1394 104.746 96.6116 105.478 96.9378C106.211 97.2641 106.994 97.4272 107.829 97.4272C108.357 97.4272 108.757 97.35 109.03 97.1954C109.302 97.0237 109.439 96.7919 109.439 96.5C109.439 96.2767 109.379 96.0878 109.26 95.9333C109.158 95.7787 108.919 95.6156 108.544 95.4439C108.17 95.2722 107.599 95.0661 106.832 94.8257C105.146 94.2934 103.954 93.7181 103.255 93.1C102.557 92.4646 102.208 91.6404 102.208 90.6272C102.208 89.5111 102.651 88.6439 103.536 88.0257C104.422 87.4075 105.666 87.0984 107.267 87.0984C109.072 87.0984 110.699 87.6136 112.147 88.6439L110.997 90.859C110.282 90.4641 109.635 90.1894 109.055 90.0348C108.476 89.8631 107.872 89.7772 107.241 89.7772C106.679 89.7772 106.262 89.8545 105.989 90.009C105.717 90.1464 105.58 90.3525 105.58 90.6272C105.58 90.8505 105.649 91.0394 105.785 91.1939C105.938 91.3313 106.194 91.4772 106.551 91.6318C106.909 91.7863 107.454 91.9752 108.187 92.1984C109.345 92.559 110.248 92.9282 110.895 93.306C111.559 93.6838 112.045 94.1303 112.352 94.6454C112.658 95.1606 112.812 95.8045 112.812 96.5772C112.812 97.6419 112.369 98.5005 111.483 99.153C110.597 99.7883 109.379 100.106 107.829 100.106Z" fill="white"/>
<path d="M120.447 82.8484C120.804 81.8525 121.469 81.3545 122.44 81.3545C123.053 81.3545 123.538 81.4833 123.896 81.7409C124.254 81.9984 124.433 82.3505 124.433 82.7969C124.433 82.9 124.399 83.0545 124.33 83.2606L130.539 99.8484H126.962L125.276 95.0833H119.348L117.661 99.8484H114.084L120.447 82.8484ZM124.535 92.353L122.337 86.1454L120.14 92.353H124.535Z" fill="white"/>
<path d="M133.091 81.8181H136.515V99.8484H133.091V81.8181Z" fill="white"/>
<defs>
<linearGradient id="paint0_linear_159_5954" x1="46.2856" y1="7.81011" x2="47.9985" y2="65.6757" gradientUnits="userSpaceOnUse">
<stop stop-color="#FF5429"/>
<stop offset="1" stop-color="#821FF3"/>
</linearGradient>
<clipPath id="clip0_159_5954">
<rect width="65" height="71" fill="white" transform="translate(37)"/>
</clipPath>
</defs>
</svg>
