<svg width="65" height="71" viewBox="0 0 65 71" fill="none" xmlns="http://www.w3.org/2000/svg">
<g clip-path="url(#clip0_43_518)">
<path opacity="0.88" d="M51.1699 30.5037C55.6792 33.3274 55.6028 39.8885 51.027 42.6064L13.9042 64.6611C9.17347 67.472 3.15847 64.1229 3.09704 58.6446L2.59276 13.0314C2.5299 7.40815 8.7549 3.94903 13.542 6.94523L51.1699 30.5037Z" fill="url(#paint0_linear_43_518)"/>
<path d="M17.0229 47.739C16.671 48.0895 16.3082 48.429 15.9351 48.7571L17.0229 47.739C19.5636 45.2121 22.7622 41.0025 20.9165 38.5835C20.9629 38.2342 21.2643 37.5228 22.1022 37.4731C23.4465 38.024 26.8115 38.2534 30.3058 35.2998L31.3486 34.3235C31.0008 34.6821 30.6529 35.0065 30.3058 35.2998L17.0229 47.739ZM19.2258 50.5477C18.8757 50.9 18.5367 51.2629 18.2093 51.6362L19.2258 50.5477C21.7493 48.0045 25.9636 44.7939 28.4172 46.6044C28.7686 46.5554 29.4829 46.2494 29.5258 45.4187C28.9593 44.0889 28.6986 40.7519 31.6443 37.2587L32.6186 36.2157C32.2608 36.5636 31.9365 36.9122 31.6443 37.2587L19.2258 50.5477Z" fill="white"/>
<path d="M30.8293 34.4371L32.7936 36.3896L7.09145 64.965C5.14145 64.654 4.02002 63.2376 3.52002 61.06L30.8293 34.4371Z" fill="white"/>
<path d="M32.6357 36.5473C31.6749 37.5022 30.4564 37.8395 29.9142 37.2999C29.3714 36.761 29.7107 35.5497 30.6714 34.5948C31.6321 33.6391 32.8514 33.3026 33.3935 33.8422C33.9364 34.381 33.5971 35.5923 32.6364 36.5473H32.6357Z" fill="white"/>
<path d="M14.7659 29.1403C14.4193 28.7312 13.8046 28.679 13.3931 29.0235C12.9816 29.3681 12.929 29.9791 13.2756 30.3881L17.3156 35.1553C17.6623 35.5643 18.2769 35.6166 18.6884 35.272C19.1 34.9274 19.1525 34.3165 18.8059 33.9074L14.7659 29.1403Z" fill="white"/>
<path d="M23.1746 29.1098C23.1676 28.7177 22.8422 28.4055 22.4478 28.4124C22.0534 28.4193 21.7393 28.7427 21.7462 29.1348L21.8093 32.692C21.8162 33.0841 22.1416 33.3963 22.536 33.3894C22.9304 33.3825 23.2445 33.0591 23.2376 32.667L23.1746 29.1098Z" fill="white"/>
<path d="M15.3394 39.7736C15.7338 39.7659 16.0473 39.4419 16.0396 39.0499C16.0319 38.6578 15.7059 38.3462 15.3115 38.3539L11.7329 38.4234C11.3385 38.4311 11.025 38.7551 11.0327 39.1472C11.0404 39.5392 11.3664 39.8508 11.7608 39.8431L15.3394 39.7736Z" fill="white"/>
<path d="M46.0193 13.49C46.0193 14.8081 46.5461 16.0723 47.4838 17.0043C48.4214 17.9364 49.6932 18.46 51.0193 18.46C49.6932 18.46 48.4214 18.9836 47.4838 19.9157C46.5461 20.8477 46.0193 22.1119 46.0193 23.43C46.0193 22.1119 45.4925 20.8477 44.5548 19.9157C43.6171 18.9836 42.3454 18.46 41.0193 18.46C42.3454 18.46 43.6171 17.9364 44.5548 17.0043C45.4925 16.0723 46.0193 14.8081 46.0193 13.49ZM54.9479 0.709991C54.9479 5.61183 58.945 9.58499 63.8764 9.58499C58.945 9.58499 54.9479 13.5582 54.9479 18.46C54.9479 13.5582 50.95 9.58499 46.0193 9.58499C50.95 9.58499 54.9479 5.61183 54.9479 0.709991Z" fill="#FEA45B" stroke="#FEA45B" stroke-width="2" stroke-linecap="round" stroke-linejoin="round"/>
</g>
<defs>
<linearGradient id="paint0_linear_43_518" x1="9.28561" y1="7.81001" x2="10.9985" y2="65.6756" gradientUnits="userSpaceOnUse">
<stop stop-color="#FF5429"/>
<stop offset="1" stop-color="#821FF3"/>
</linearGradient>
<clipPath id="clip0_43_518">
<rect width="65" height="71" fill="white"/>
</clipPath>
</defs>
</svg>
